<svg height="600" viewBox="0 0 796.738 1301.017" width="300" xmlns="http://www.w3.org/2000/svg">
  <path d="m360.768 119.723c-20.623.545-12.832 59.19 12.397 51.502 4.107 11.147 8.844 22.438 13.139 33.564 2.357 6.105 5.454 10.168 8.949 14.981 3.191 4.394 3.828 8.99 4.42 14.69.796 7.661-2.616 6.855-9.198 10.054-6.936 3.371-10.927 5.638-15.86 11.56-6.136 7.366-11.262 9.316-8.389 19.089 2.575 8.759 5.806 17.364 8.885 26.063 13.128 37.08 22.77 76.509 39.069 112.445 3.911 8.622 7.618 17.007 10.368 26.015 2.893 9.481 2.923 9.215 12.665 11.867 23.275 6.337 48.365 4.352 71.97 8.195 2.507-11.002 3.937-22.037 7.866-33.255 5.594-15.968 9.263-32.961 12.382-49.6 5.037-26.869 11.353-55.062 11.357-82.408.002-16.241 3.935-30.272 6.741-46.309 4.394-25.111 8.679-51.081 9.598-76.498.828-22.912-.048-45.66-1.272-68.342-15.686-.895-31.478.627-47.197-.795-19.908-1.802-39.163-2.986-58.869-6.722-17.673-3.35-40.745-8.012-57.225.808-5.127 2.744-31.636 17.444-30.82 22.168 2.128-1.36-2.594 2.906-.976.928z" fill="#fff" />
  <path d="m524.584 1068.025c-3.851 15.55-11.098 33.2-14.781 47.973-4.756 19.075-12.134 36.62-20.971 54.297-8.158 16.32-11.909 33.816-23.522 47.507-12.379 14.595-17.411 34.192-28.48 49.222-5.827 7.913-22.603 19.682-7.242 28.826 12.693 7.556 21.262-5.579 30.822-9.475 2.124 17.057 21.103 14.526 27.374 1.952 1.434 8.644 10.963 13.627 22.046.997 5.553 8.725 23.07 10.03 24.706-2.219 7.69 7.591 20.047 9.48 27.771-.279 7.408-9.361 3.452-19.044 3.278-29.801-.306-18.871 1.87-41.319 6.174-59.849 5.411-.772 27.612 2.375 32.826 1.849 10.907-1.1 28.012-1.436 35.271-11.003 6.493-8.558 1.624-23.16-.219-32.973-2.767-14.732-4.706-29.857-6.203-44.875-20.034-2.436-39.633-17.551-56.849-26.897-8.395-4.557-18.004-8.445-27-11.032-7.469-2.148-20.091-.634-25.001-4.22z" fill="#fff" />
  <path d="m647.583 290.027c16.823 20.004 29.378 52.289 42.417 74.998 3.532 6.152-9.717 17.269-7.364 23.371 2.417 6.268 14.189 3.967 18.551 9.487 8.736 11.056 11.836 29.394 19.152 42.159 29.851 52.088 96.018 91.149 68.662 148.984-25.298 53.482-59.796 62.482-59.796 62.482s4.567 27.35 6 43.498c2.403 27.09-1.436 42.431-9.442 68.997-16.081 53.366-27.87 109.62-38.908 164.92-15.4 77.157-47.548 176.796-41.782 256.121-16.541-34.8-58.425-65.728-92.495-81.938-16.531-7.865-62.031-27.345-62.031-27.345s16.316-42.925 18.862-54.486c18.623-84.547 17.024-181.907 32.047-266.889-21.808 4.772-247.091 4.14-274.911-.326-42.209-6.776-85.017-19.324-120.622-46.876-10.13-7.839-36.617-42.501-36.617-42.501s-17.426-14.554-40.079-33.605c-21.786-18.322-44.018-37.758-55.227-58.053-51.685-93.577 84.256-96.723 150.031-57.258 3.651-28.125 64.092-116.002 77.502-151.555 7.328-19.428 18.841-42.112 40.467-49.853 21.118-7.56 39.667-9 57.667-22.333 3.157-2.339-.561.065 2.227-3.059 17.328-19.416 40.403-40.522 40.403-40.522s3.99 28.879 11.703 45.915c8.461 18.689 10.829 32.936 23.228 52.674 7.21 11.477 27.372 74.613 27.372 74.613s16.117 1.873 23.141-.515c10.925-29.105 14.258-86.772 20.836-100.935 5.651-12.167 22.58-34.312 30.325-45.013 6.321-8.734-15.187-15.156-15.187-15.156l-2-21.999s14.427-8.33 32.161-.882c21.677 9.103 38.627 36.213 49.879 36.881 9.855.585 32.15 6.001 42.826 6 11.434-.003 19.084 3.864 21.002 9.999z" fill="#b464a0" />
  <path d="m635.778 464.131c6.551 21.128 34.677 33.287 28.004 58.211-3.191 11.92-7.405 25.508-14.774 35.28-6.69 8.871-11.559 15.853-23.877 17.572-3.682-8.863-1.191-20.348-.819-29.917.413-10.631.502-20.926 1.96-31.359 2.283-16.335 2.609-33.267 4.347-49.654 2.116.164 3.531-.779 5.159-.133z" fill="#fff" />
  <path d="m259.336 659.365h335.379c7.809 0 13.815-4.022 14.426-9.69l22.383-207.538c1.043-9.674-9.299-18.898-21.302-18.898h-357.376c-8.864 0-14.717 5.158-14.057 12.34z" fill="#fff" />
  <path d="m259.336 662.365h6.871 18.961 28.572 35.527 40.339 42.523 42.227 39.281 34.227 26.505 16.303c6.323 0 12.901-.204 17.773-4.97 4.069-3.981 3.94-9.99 4.51-15.279.905-8.387 1.809-16.774 2.714-25.161 1.32-12.24 2.64-24.479 3.96-36.719 1.507-13.977 3.015-27.953 4.522-41.93 1.467-13.598 2.933-27.197 4.4-40.795 1.193-11.062 2.386-22.124 3.579-33.187.703-6.521 1.406-13.041 2.11-19.562.12-1.116.284-2.239.338-3.361.504-10.45-9.327-18.62-18.793-20.568-3.642-.749-7.345-.594-11.038-.594-5.699 0-11.397 0-17.096 0-8.814 0-17.628 0-26.442 0-11.285 0-22.57 0-33.856 0-12.995 0-25.99 0-38.984 0-13.976 0-27.953 0-41.929 0-14.23 0-28.46 0-42.691 0-13.695 0-27.39 0-41.086 0-12.561 0-25.122 0-37.684 0-10.635 0-21.269 0-31.904 0-7.98 0-15.96 0-23.941 0-4.598 0-9.196 0-13.793 0-.801 0-1.601-.007-2.402 0-7.16.065-15.084 3.412-16.831 11.063-.916 4.01.085 8.72.455 12.75.764 8.323 1.528 16.645 2.292 24.968 1.103 12.014 2.206 24.028 3.309 36.042 1.268 13.811 2.536 27.622 3.804 41.434 1.278 13.914 2.555 27.828 3.833 41.742 1.113 12.127 2.227 24.254 3.34 36.381.781 8.511 1.563 17.022 2.344 25.533.282 3.071.564 6.142.846 9.214.35 3.813 6.353 3.85 6 0-.298-3.241-.595-6.482-.893-9.723-.784-8.537-1.568-17.074-2.351-25.611-1.107-12.054-2.213-24.108-3.32-36.161-1.266-13.792-2.533-27.583-3.799-41.375-1.263-13.75-2.525-27.501-3.788-41.251-1.095-11.93-2.191-23.861-3.286-35.791-.765-8.331-1.53-16.662-2.295-24.993-.207-2.26-.415-4.52-.622-6.779-.122-1.33-.366-2.798-.216-4.121.793-6.965 8.661-7.32 14.198-7.32h14.43 24.254 31.954 37.713 40.992 42.31 41.504 38.573 33.518 26.34 17.037c3.031 0 6.329-.252 9.313.324 7.439 1.434 15.38 7.275 14.617 15.63-.105 1.152-.248 2.303-.372 3.453-.741 6.868-1.481 13.736-2.222 20.604-1.212 11.241-2.425 22.482-3.637 33.723-1.462 13.556-2.924 27.112-4.386 40.669-1.49 13.813-2.98 27.627-4.469 41.44-1.296 12.013-2.591 24.026-3.887 36.039-.879 8.154-1.759 16.309-2.638 24.463-.214 1.987-.429 3.974-.643 5.961-.039.358-.068.719-.116 1.076-.002.018-.003.036-.006.054.11-.799-.138.533-.211.765-.131.416-.284.765-.496 1.144-.963 1.716-2.691 2.901-4.474 3.647-3.584 1.5-7.836 1.135-11.668 1.135-5.83 0-11.66 0-17.49 0-9.075 0-18.151 0-27.226 0-11.517 0-23.034 0-34.551 0-13.155 0-26.309 0-39.464 0-13.988 0-27.977 0-41.965 0-14.018 0-28.036 0-42.054 0-13.302 0-26.604 0-39.907 0-11.657 0-23.313 0-34.97 0-9.271 0-18.542 0-27.813 0-6.081 0-12.163 0-18.244 0-2.091 0-4.182 0-6.273 0-3.857-.003-3.863 5.997.004 5.997z" fill="#1b1464" />
  <path d="m445.833 564.19h-22.595c-4.626 0-8.407-2.918-8.445-6.531l-.188-17.851c-.039-3.697 3.743-6.706 8.447-6.706h22.977c4.704 0 8.485 3.008 8.445 6.706l-.193 17.851c-.04 3.613-3.822 6.531-8.448 6.531z" fill="#1967ff" />
  <path d="m250.878 568.05c28.574 22.323 62.065 41.113 83.122 58.975 26.321 22.329 38 22 68.678 19.603-22.538 2.342-49.435 60.913-68.685 59.899-22.776-1.2-108.323-5.261-131.993-3.502 5.988-29.543 20.591-68.079 9-95-5.142-11.944 27.955-22.181 25.399-35.046-2.07-10.413-3.996-19.363 14.479-4.929z" fill="#ff89d8" />
  <path d="m404.31 197.782c-5.564 0-12.339-2.027-19.526-8.733-3.107-2.899-3.275-7.767-.376-10.873s7.767-3.275 10.873-.376c6.24 5.822 10.133 4.62 11.411 4.225 4.06-1.254 8.367 1.021 9.621 5.08 1.254 4.06-1.021 8.367-5.08 9.621-1.989.614-4.324 1.056-6.923 1.056z" fill="#ff89d8" opacity=".5" />
  <g fill="#1b1464">
    <path d="m439.248 195.099c-.938.116-1.882.161-2.828.143-.523-.01-1.044-.041-1.564-.089-.593-.055.694.129-.312-.037-.364-.06-.726-.134-1.084-.224-.25-.063-.495-.138-.742-.212-.892-.269.229.142-.25-.079-.216-.1-.414-.228-.626-.335-.8-.405.516.2-.245-.188-.358-.183.052-.267-.026.009-.038-.065-.076-.13-.114-.194.148.371.173.392.077.064.097.108-.031.649.035.054 0-.18.008-.359.025-.538-.043.281-.045.31-.006.087.393-2.202 1.453-4.223 1.87-6.418.215-1.13.158-2.141-.014-3.245-.898-5.782-1.795-11.565-2.693-17.347-.312-2.008-.623-4.016-.935-6.023-.249-1.602-2.257-2.489-3.69-2.095-1.71.47-2.345 2.083-2.095 3.69.817 5.262 1.634 10.524 2.451 15.786.397 2.557.794 5.114 1.191 7.671.028.179.096.392.089.572.043-1.023-.223.026-.089-.605-.12.564-.267 1.117-.439 1.668-.712 2.274-1.771 4.617-1.656 7.053.304 6.434 8.728 7.44 13.669 6.831 1.608-.198 3-1.237 3-3 .001-1.467-1.38-3.199-2.999-2.999z" />
    <path d="m392.986 169.025c3.028 11.827 19.968 8.43 26.915 2.617 1.482-1.24-.65-3.353-2.121-2.121-3.375 2.824-8.135 4.317-12.494 4.401-4.1.079-8.294-1.35-9.406-5.694-.48-1.87-3.374-1.078-2.894.797z" />
    <path d="m426.727 155.984c-9.497-8.306-24.317-8.063-35.278-2.938-1.468.686-1.841 2.798-1.076 4.105.88 1.504 2.631 1.765 4.105 1.076.898-.42 1.758-.758 3.036-1.164 1.158-.368 2.336-.673 3.525-.92 2.515-.522 4.91-.732 7.681-.652 4.892.141 10.096 1.528 13.765 4.737 1.219 1.066 3.043 1.2 4.243 0 1.087-1.09 1.223-3.173-.001-4.244z" />
    <path d="m414.335 38.34c-3.64-1.416-7.935-1.476-11.789-1.54-5.091-.084-10.192.208-15.258.696-4.532.437-9.1.979-13.55 1.966-4.813 1.068-9.426 3.371-13.679 5.806-5.398 3.091-10.366 6.998-14.6 11.557-4.214 4.537-8.415 9.766-10.29 15.754-1.829 5.841-1.618 12.307.057 18.156.893 3.118 2.219 6.158 3.903 8.929 1.772 2.916 4.019 5.458 6.297 7.982 1.884 2.087 3.752 4.055 5.085 6.151.3.472.581.958.829 1.46.04.08.355.888.125.256.088.243.176.484.249.733.072.244.118.493.184.738.206.759.015-.587.032.199.006.254.026.505.02.759-.004.171-.014.342-.029.513.058-.365.057-.371-.003-.016-.581 2.473-2.238 4.638-4.322 6.727-2.342 2.348-4.975 4.327-7.761 6.114-10.784 6.916-24.456 11.527-29.98 24.112-2.623 5.977-3.094 12.984.508 18.695 3.146 4.986 8.499 6.957 13.888 8.564 2.516.75 4.786 1.405 6.76 2.493 1.967 1.084 3.16 2.18 4.273 4.144.203.358.376.727.555 1.097-.392-.81.098.315.169.551.107.354.16.721.26 1.075.174.62-.033-.725-.005-.086.01.236.04.471.047.707.01.353-.012.701-.029 1.053-.011.234-.165.786.024-.1-.037.172-.059.348-.095.52-.073.349-.164.693-.27 1.033-.054.173-.118.342-.174.513-.259.792.192-.335-.043.134-.344.688-.681 1.366-1.094 2.017-.215.339-.442.671-.677.996-.12.167-.244.331-.368.495.514-.678-.081.086-.187.213-1.207 1.449-2.56 2.772-3.97 4.023-.729.647-1.476 1.273-2.235 1.886-.39.315-.783.625-1.178.933.545-.425-.126.095-.197.149-.271.206-.544.411-.817.615-1.741 1.298-3.518 2.547-5.304 3.781-3.477 2.402-7.008 4.734-10.385 7.276-3.052 2.297-6.042 4.698-8.339 7.779-.876 1.176-1.559 2.458-2.014 3.857-.501 1.541.584 3.275 2.095 3.69 1.626.447 3.187-.549 3.69-2.095.04-.125.124-.279.141-.407.069-.523-.352.636-.074.172.157-.261.273-.553.426-.818.162-.281.337-.554.52-.821.095-.139.2-.272.294-.412.283-.419-.469.546.068-.08 1.071-1.25 2.231-2.396 3.477-3.472.672-.581 1.367-1.131 2.058-1.689.607-.489-.505.377.124-.097.188-.142.374-.285.562-.426.383-.288.768-.573 1.154-.855 1.691-1.237 3.414-2.429 5.141-3.614 3.503-2.405 7.036-4.775 10.414-7.357 3.233-2.471 6.44-5.07 8.992-8.266 2.304-2.886 4.092-6.157 4.264-9.924.184-4.013-1.849-8.084-4.725-10.798-4.062-3.833-9.588-4.88-14.704-6.594-.583-.195-1.161-.402-1.733-.626-.219-.086-.645-.266-1.221-.557-.446-.225-.884-.466-1.309-.729-.751-.464-.846-.536-1.319-.957-1.879-1.674-3.045-3.883-3.471-6.628-.752-4.846 1.796-10.54 5.244-14.44 4.219-4.773 10.201-7.766 15.725-10.835 5.899-3.277 11.836-6.667 16.698-11.418 4.115-4.022 7.974-9.603 5.85-15.592-1.976-5.575-6.888-9.612-10.575-14.038-3.633-4.361-6.1-10.155-6.697-15.5-.608-5.442.21-10.619 3.07-15.112 3.286-5.161 7.436-9.825 12.148-13.725 4.359-3.609 9.61-6.622 14.933-8.878 3.353-1.421 6.849-2.082 10.439-2.619 1.941-.29 4.105-.55 6.63-.794 2.576-.248 5.157-.437 7.742-.56 4.602-.218 9.184-.198 13.77.246.784.076-.654-.116.103.013.214.037.429.065.643.102.401.068.8.144 1.196.234.679.153 1.349.342 1.998.595 1.51.587 3.292-.647 3.69-2.095.468-1.696-.578-3.1-2.094-3.689z" />
    <path d="m515.204 163.584c3.95.895 7.237-.867 10.327-3.153 1.499-1.109 2.82-2.148 3.82-3.754.873-1.401 1.412-3 2-4.534.282-.736.349-.864.711-1.62.413-.862.829-1.724 1.24-2.587.744-1.56 1.479-3.125 2.165-4.712 1.394-3.221 2.626-6.498 3.42-9.923.749-3.229 1.206-6.374.626-9.66-.515-2.921-1.866-5.642-3.758-7.909-4.004-4.796-11.129-6.269-16.57-3.1-3.174 1.848-5.499 4.802-7.688 7.677-1.797 2.359-3.557 4.747-5.346 7.113 1.828.239 3.656.478 5.483.717-.887-4.891-4.95-8.629-8.822-11.368-3.983-2.819-8.627-4.83-13.284-6.237-5.479-1.655-11.126-1.601-16.792-1.475-5.674.127-11.398.593-16.904 2.035-5.981 1.566-11.75 4.163-16.894 7.585h3.028c-1.91-1.463-4.033-2.688-6.142-3.831-5.254-2.847-10.895-5.088-16.691-6.551-7.069-1.784-14.513-2.676-21.678-.946-6.412 1.548-12.322 4.989-17.103 9.498-4.897 4.62-8.81 10.595-10.515 17.147 1.671-.441 3.343-.883 5.014-1.324-3.463-2.76-7.085-5.544-11.016-7.602-2.54-1.329-5.151-2.076-7.941-.946-3.262 1.321-5.655 4.141-7.39 7.123-1.555 2.672-2.751 5.679-2.906 8.792-.22 4.419 1.52 8.57 3.513 12.413 1.523 2.936 3.018 5.836 4.323 8.876 1.13 2.632 2.307 5.292 4.011 7.612 2.192 2.984 5.004 5.226 8.796 5.586.952.09 1.907-.015 2.846-.18.078-.014.584-.093.586-.117 0 .004-.64.033-.422.028.207-.005.414-.024.62-.035 1.051-.06 2.101-.12 3.152-.18-.964-.734-1.929-1.468-2.893-2.202 2.448 6.96 5.301 13.793 8.132 20.603 3.268 7.863 6.537 15.779 10.39 23.378 1.179 2.326 2.432 4.514 4.245 6.415 2.408 2.524 5.257 4.652 8.079 6.684 7.212 5.196 14.947 9.692 22.757 13.919 6.517 3.527 13.174 7.023 20.115 9.655 2.166.821 4.4 1.418 6.721 1.582 3.267.231 6.392-.774 9.337-2.085 5.989-2.667 11.065-7.126 16.175-11.145 6.505-5.115 12.133-11.486 17.563-17.693 5.432-6.21 10.965-12.619 15.359-19.625 3.023-4.819 3.526-10.784 4.451-16.284 1.352-8.038 2.552-16.106 3.623-24.187.132-.998.264-1.996.375-2.996.179-1.613-1.507-3-3-3-1.771 0-2.82 1.383-3 3-.111 1-.243 1.999-.375 2.996-.024.184-.049.368-.074.552.111-.833.043-.32.015-.116-.052.382-.104.765-.157 1.147-.117.848-.236 1.696-.356 2.544-.576 4.063-1.181 8.122-1.818 12.177-.62 3.95-1.263 7.897-1.995 11.828-.274 1.472-.559 2.943-.887 4.405-.209.931-.57 1.858-.753 2.787-.018.089.371-.742.006-.051-.114.216-.22.435-.337.65-.282.518-.587 1.022-.9 1.522-.816 1.301-1.697 2.562-2.597 3.806-.487.673-.982 1.341-1.482 2.005-.32.425-.642.848-.966 1.269-.057.074-.346.445-.034.044-.229.295-.459.59-.69.884-1.351 1.72-2.73 3.419-4.128 5.1-5.627 6.767-11.516 13.412-17.96 19.419-1.235 1.151-2.502 2.266-3.814 3.329-.045.037-.567.45-.162.131.685-.539-1.213.937-.794.613-.569.441-1.137.884-1.703 1.328-1.31 1.029-2.612 2.068-3.947 3.065-4.328 3.232-10.035 7.317-15.521 6.527-1.728-.249-3.412-.855-5.034-1.488-.295-.115-.59-.233-.883-.353-.141-.058-.281-.117-.422-.174-.624-.251.647.281.014.007-.698-.303-1.396-.605-2.09-.917-3.435-1.546-6.812-3.222-10.157-4.954-7.759-4.018-15.391-8.341-22.694-13.142-1.678-1.103-3.337-2.235-4.963-3.413-.344-.249-.687-.501-1.029-.755-.18-.134-1.302-.991-.761-.57-.664-.516-1.32-1.042-1.963-1.584-1.096-.923-2.165-1.886-3.138-2.938-.187-.202-.37-.407-.548-.616-.286-.338-.486-.698-.1-.104-.298-.458-.611-.898-.887-1.371-3.649-6.245-6.372-13.123-9.2-19.762-2.926-6.867-6.183-14.798-8.999-22.238-.428-1.131-.85-2.264-1.251-3.405-.421-1.196-1.525-2.281-2.893-2.202-1.809.103-3.607.137-5.385.492-.357.071.022 0 .083-.006-.138.013-.277.025-.415.028-.314.006-.622-.002-.935-.016.571.025-.087-.02-.334-.082-.282-.071-.557-.161-.829-.264.554.211-.094-.07-.284-.179-.217-.124-.419-.267-.63-.4-.374-.238.346.302.006.011-.097-.083-.195-.164-.291-.249-.258-.23-.505-.474-.741-.726-.182-.194-.354-.395-.527-.597-.064-.075-.348-.443-.034-.029-.083-.109-.164-.22-.242-.332-.372-.537-.73-1.081-1.062-1.644-.655-1.111-1.229-2.267-1.768-3.438-1.078-2.34-1.998-4.748-3.164-7.047-1.609-3.173-3.572-6.234-4.476-9.708-.186-.715-.334-1.429-.382-2.163-.032-.479-.042-.96-.025-1.44.007-.208.041-.423.038-.631-.009-.661-.121.434-.024.081.134-.489.202-.996.345-1.485.087-.297.184-.59.286-.882.046-.131.093-.261.142-.39-.006.017.286-.712.171-.441.95-2.229 2.359-4.604 4.417-6.208-.363.283.179-.106.3-.182.125-.078.842-.467.585-.348-.261.122.374-.116.49-.157.658-.229-.24-.023.449-.076.126-.01.256.02.38.006-.086.009-.627-.182-.254-.038.149.058.324.079.479.125.211.063.413.149.621.222.308.108-.236-.099-.238-.1.133.064.27.121.402.187 2.478 1.241 4.78 2.809 7.025 4.425.917.66 1.822 1.337 2.722 2.021.587.446-.24-.191.015.01.121.095.242.189.363.283.103.08.205.161.307.242 1.687 1.344 4.396 1.053 5.014-1.324.692-2.66 1.416-4.348 2.762-6.691 1.448-2.52 2.891-4.417 4.859-6.468 3.938-4.106 8.776-7.254 14.213-8.867 6.177-1.833 12.592-1.239 18.921.235 5.616 1.309 10.581 3.171 15.501 5.74 2.429 1.268 4.877 2.647 7.059 4.319.788.604 2.231.53 3.028 0 8.328-5.539 17.663-8.224 27.602-8.694 5.228-.247 10.853-.606 15.866.499 4.194.924 8.359 2.583 12.046 4.789 3.706 2.218 7.644 5.291 8.367 9.281.207 1.14 1.422 2.021 2.494 2.149 1.292.154 2.23-.428 2.989-1.432.194-.257.388-.513.582-.77.113-.15.671-.883.234-.313 1-1.306 1.99-2.617 2.968-3.939 1.572-2.125 3.151-4.277 5.088-6.09.847-.792 1.248-1.116 2.286-1.681.756-.412 1.886-.735 2.724-.754 1.147-.026 1.697.08 2.83.47.542.187 1.861.971 2.29 1.377.884.838 1.287 1.304 1.795 2.13.687 1.118.879 1.577 1.21 2.694.67 2.259.58 4.017.164 6.227-1.114 5.913-3.55 11.295-6.136 16.683-.719 1.498-1.395 2.999-1.987 4.552-.4 1.051-.868 2.259-1.445 2.977-.891 1.109-2.318 1.939-3.505 2.691-1.167.74-2.344 1.386-3.632 1.094-1.579-.358-3.247.483-3.69 2.095-.415 1.507.509 3.328 2.096 3.687z" />
    <path d="m413.462 44.929c7.53-2.836 9.036-11.349 13.867-16.687 5.751-6.354 13.755-9.854 21.53-13.059 9.022-3.719 18.404-7.204 28.139-8.435 9.54-1.206 18.954.08 27.79 3.886 16.083 6.928 29.357 19.786 38.78 34.36 2.702 4.179 5.17 8.503 7.658 12.811 1.093 1.893 2.455 3.803 3.285 5.806.754 1.819.989 3.663 1.099 5.54.246 4.195-.104 8.442.903 12.565 1.085 4.442 3.907 8.04 7.714 10.499 5.977 3.86 13.501 5.131 20.288 6.911 1.533.402 3.06.826 4.569 1.312.704.227 1.404.465 2.098.722.367.136.731.277 1.094.422.557.221.209.084.089.033.221.094.441.193.66.292 1.365.622 2.691 1.339 3.924 2.195.15.104.298.211.446.319.382.278-.324-.267.04.03.245.199.486.403.72.614.564.511 1.089 1.062 1.572 1.65.296.36-.248-.35.021.031.104.147.207.293.307.443.175.264.341.533.497.809.181.32.347.647.501.98.041.088.203.527.025.059.085.223.165.447.239.674.579 1.772.664 2.658.649 4.595-.027 3.534-1.04 7.031-2.23 10.569-2.357 7.005-5.298 14.408-2.726 21.809 1.346 3.871 3.791 7.55 7.013 10.111 2.792 2.22 5.995 3.696 9.4 4.727 3.192.967 6.483 1.549 9.742 2.234 1.62.341 3.238.704 4.832 1.154.732.207 1.459.431 2.178.681.379.132.754.273 1.129.416.14.054.279.109.417.167-.484-.203.368.172.375.176.67.313 1.326.658 1.961 1.038.338.203.67.415.995.639.122.084.243.169.363.256.767.555-.396-.352.332.261 1.317 1.109 2.238 2.153 3.005 3.385.885 1.421 1.321 2.384 1.556 4.17-.071-.538.003.317.009.476.014.375.009.75-.013 1.124-.01.174-.125 1.026-.03.458-.07.419-.156.835-.261 1.246-.159.618-.517 1.665-.644 1.968s-.663 1.366-.982 1.93c-.731 1.29-1.9 2.979-2.582 3.844-2.184 2.771-4.646 5.309-7.067 7.871-2.249 2.38-4.513 4.788-6.364 7.5-1.602 2.349-2.87 4.919-4.007 7.518-2.643 6.043-4.65 12.329-6.958 18.501-.582 1.557-1.185 3.107-1.819 4.644-.233.565-.108.264-.056.139-.08.189-.161.378-.243.567-.162.376-.327.751-.494 1.125-.332.741-.674 1.478-1.029 2.208-1.365 2.808-2.919 5.54-4.802 8.037.327-.433-.337.421-.402.5-.236.288-.478.571-.724.85-.488.553-.997 1.087-1.526 1.6-.492.477-1.006.929-1.531 1.37-.058.049-.503.406-.23.191.273-.214-.178.133-.24.178-.332.24-.667.476-1.01.7-.575.375-1.167.724-1.774 1.044-.327.173-.66.333-.994.492-.068.032-.599.268-.281.131.305-.131-.444.173-.425.166-1.714.651-3.517 1.003-5.077 1.177-1.805.2-3.654.343-5.395.888-2.269.71-4.204 1.953-5.957 3.542-1.201 1.089-1.106 3.136 0 4.243 1.195 1.195 3.039 1.091 4.243 0 1.488-1.349 2.873-1.988 4.767-2.36 1.433-.282 3.563-.406 5.405-.722 3.363-.577 6.656-2.041 9.418-4.039 5.325-3.853 9.031-9.37 11.85-15.231 2.961-6.157 5.123-12.653 7.436-19.069.563-1.562 1.135-3.12 1.736-4.667.265-.683.536-1.365.814-2.043.073-.178.147-.357.221-.535.189-.454-.16.372.033-.076.168-.39.338-.78.512-1.168 1.169-2.607 2.483-5.189 4.167-7.505.089-.122.582-.761.262-.356.232-.293.468-.583.708-.87.537-.643 1.091-1.272 1.653-1.893 1.175-1.298 2.385-2.564 3.588-3.836 2.526-2.671 5.005-5.379 7.194-8.337 4.32-5.839 6.658-13.046 3.031-19.847-3.494-6.552-10.335-9.634-17.236-11.261-3.253-.767-6.554-1.313-9.797-2.121-1.639-.408-3.256-.891-4.835-1.491-.57-.217-.121-.027-.674-.28-.318-.146-.635-.295-.947-.453-.756-.384-1.491-.81-2.194-1.284-.652-.44-.785-.529-1.528-1.215-.682-.63-1.326-1.314-1.892-2.052-1.141-1.487-2.108-3.178-2.65-4.861-1.072-3.328-.789-6.385.078-9.759 1.906-7.42 5.695-14.439 5.158-22.32-.253-3.708-1.467-7.08-3.782-9.992-1.945-2.448-4.638-4.298-7.434-5.651-5.822-2.817-12.177-3.937-18.348-5.697-3.711-1.059-7.493-2.065-10.782-4.098-3.274-2.023-5.168-5.244-5.617-8.902-.516-4.199-.069-8.44-.719-12.636-.735-4.737-3.529-8.666-5.878-12.735-4.906-8.501-10.058-16.762-16.559-24.155-5.932-6.746-12.756-12.779-20.323-17.636-7.876-5.055-16.815-8.998-26.131-10.301-10.267-1.437-20.572.124-30.422 3.146-4.828 1.481-9.551 3.284-14.221 5.201-4.303 1.766-8.624 3.549-12.72 5.765-3.905 2.113-7.631 4.681-10.773 7.834-2.871 2.881-4.832 6.148-6.759 9.685-.405.743-.817 1.484-1.257 2.207-.231.38-.469.756-.718 1.125-.088.13-.632.883-.497.711-.516.657-1.106 1.29-1.756 1.816.27-.219-.416.277-.524.343-.177.108-.358.207-.541.304-.504.266.637-.215-.292.135-1.515.571-2.553 2.026-2.095 3.69.398 1.453 2.165 2.668 3.689 2.094z" />
    <path d="m498.532 211.049v26.92c0 9.594.245 19.225-.156 28.812-.212 5.073-.325 10.311 1.431 15.156.552 1.523 2.04 2.549 3.69 2.095 1.47-.404 2.65-2.16 2.095-3.69-1.457-4.021-1.424-8.231-1.262-12.452.176-4.59.201-9.167.201-13.761 0-9.29 0-18.581 0-27.871 0-5.07 0-10.139 0-15.209.001-3.861-5.999-3.867-5.999-0z" />
    <path d="m394.725 223.49c1.015 2.32 1.208 4.801 1.363 7.29.153 2.457.472 4.845 1.028 7.242.639 2.752 1 5.58 1.384 8.376.026.189.052.377.077.566-.076-.56.01.075.028.212.058.442.116.884.173 1.327.129 1.008.254 2.017.375 3.027.231 1.923.448 3.847.651 5.773.334 3.178.661 6.365.817 9.557.21 4.315.273 8.69-.111 12.994-.144 1.616 1.482 3 3 3 1.743 0 2.855-1.379 3-3 .639-7.147.13-14.4-.599-21.523-.729-7.127-1.398-14.394-2.898-21.409-.47-2.196-.808-4.289-.948-6.538-.218-3.491-.749-6.703-2.158-9.923-.649-1.485-2.822-1.826-4.105-1.076-1.533.896-1.729 2.614-1.077 4.105z" />
    <path d="m491.153 310.924c-.847 1.007-1.277 2.218-1.734 3.441-.616 1.647-1.159 3.323-1.699 4.996-1.474 4.568-2.86 9.164-4.268 13.752-1.239 4.035-2.443 8.091-3.846 12.073-.716 2.03-1.261 4.065-1.719 6.171-1.651 7.598-2.893 15.291-4.198 22.954-1.525 8.957-3.004 17.923-4.654 26.858-.646 3.5-1.311 6.999-2.093 10.471-.276 1.225-.565 2.448-.903 3.657-.129.461-.264.921-.417 1.375-.058.172-.124.341-.182.512-.23.679.307-.53.085-.191-.065.099-.135.237-.178.348-.191.489.239-.294.275-.334-1.078 1.209-1.192 3.051 0 4.243 1.097 1.097 3.16 1.214 4.243 0 1.322-1.482 1.789-3.636 2.267-5.512.77-3.019 1.375-6.082 1.966-9.14 1.687-8.726 3.138-17.498 4.624-26.26 1.389-8.192 2.731-16.399 4.361-24.547.481-2.404.945-4.84 1.668-7.185.96-3.114 2.094-6.179 3.065-9.293 1.476-4.738 2.907-9.49 4.384-14.228.637-2.041 1.279-4.081 1.955-6.11.268-.804.54-1.606.827-2.404.108-.299.217-.597.33-.894.05-.13.102-.259.151-.39.238-.627-.033.216-.093.208-.21-.028 1.31-1.855.027-.33 1.042-1.239 1.215-3.028 0-4.243-1.072-1.068-3.196-1.243-4.244.002z" />
    <path d="m557.744 258.134c-8.195-4.045-13.62-11.685-20.97-16.92-2.009-1.432-4.355.54-4.514 2.59-.069.883.175-.768-.025.186-.081.384-.163.766-.264 1.146-.221.826-.494 1.638-.788 2.441-.171.466-.35.928-.535 1.388-.087.217-.178.433-.266.65-.234.581.233-.518.056-.132-.078.169-.147.342-.221.513-.496 1.138-1.02 2.264-1.559 3.382-2.66 5.512-5.672 10.856-8.78 16.127-6.587 11.171-13.631 22.172-21.445 32.53-.208.275-.416.55-.626.824-.082.107-.164.214-.246.321-.394.517.35-.445-.016.02-.406.515-.81 1.033-1.221 1.544-.698.867-1.41 1.724-2.148 2.558-.585.66-1.184 1.311-1.826 1.918-.233.22-.484.419-.718.637-.392.365.677-.36.227-.178-.115.046-.233.157-.341.22-1.888 1.107-2.009 4.104 0 5.181 4.208 2.255 8.425 4.494 12.649 6.718 2.983 1.57 5.969 3.135 8.972 4.665 3.13 1.594 6.336 3.033 9.412 4.732 5.735 3.167 11.184 6.879 16.315 10.948 1.352 1.072 2.886 1.154 4.243 0 1.053-.897 1.835-2.183 2.551-3.354.984-1.609 1.855-3.287 2.703-4.971 2.17-4.308 4.153-8.709 6.15-13.098 1.677-3.685 3.297-7.415 5.184-10.999 1.171-2.224 2.498-4.366 3.697-6.576 1.788-3.297 3.569-6.631 5.856-9.617 4.872-6.363 10.974-11.738 16.628-17.38 1.279-1.277 1.157-3.861-.607-4.712-7.139-3.445-14.278-6.892-21.415-10.343-2.039-.986-4.076-1.971-6.112-2.959-1.457-.707-3.243-.397-4.105 1.076-.77 1.316-.388 3.394 1.076 4.105 8.271 4.013 16.552 8.004 24.83 12 .898.434 1.797.867 2.695 1.301-.202-1.571-.405-3.141-.607-4.712-5.204 5.194-10.669 10.17-15.379 15.832-4.554 5.474-7.691 11.808-11.198 17.962-1.852 3.25-3.329 6.735-4.878 10.134-2.002 4.391-3.976 8.797-6.093 13.134-.978 2.003-1.979 3.999-3.094 5.929-.432.747-.894 1.47-1.373 2.187-.084.126-.183.241-.267.367.539-.811.223-.264.049-.084-.177.182-.34.369-.534.534h4.243c-4.759-3.774-9.706-7.311-14.936-10.404-3.517-2.08-7.2-3.79-10.843-5.625-5.985-3.015-11.899-6.173-17.815-9.321-1.657-.882-3.314-1.765-4.969-2.652v5.181c2.975-1.745 5.233-5.055 7.301-7.714 3.791-4.875 7.335-9.938 10.77-15.069 7.433-11.104 14.598-22.541 20.549-34.519 2.141-4.31 4.714-9.082 5.094-13.973-1.505.863-3.009 1.727-4.514 2.59 3.575 2.547 6.616 5.723 9.793 8.729 3.372 3.19 6.995 6.127 11.176 8.191 1.452.717 3.247.391 4.105-1.076.775-1.322.383-3.383-1.076-4.103z" />
    <path d="m429.188 291.968c2.299 2.346 3.854 4.786 5.889 7.537 1.759 2.378 3.654 5.284 6.307 6.77 2.684 1.504 5.227.338 7.439-1.374 2.326-1.801 4.333-3.984 6.254-6.202 1.876-2.167 3.661-4.413 5.391-6.698.979-1.293.205-3.355-1.076-4.105-1.539-.9-3.123-.22-4.105 1.076-.211.279-.425.557-.638.835.29-.377.234-.301-.003.001-.18.23-.36.459-.541.688-.761.961-1.534 1.911-2.323 2.849-1.744 2.073-3.552 4.119-5.559 5.943-.223.203-.449.402-.679.597-.127.107-.798.629-.236.21-.391.291-.79.575-1.217.812-.15.083-.75.304-.27.153.527-.165-.122.023-.217.032.248-.023.765-.049.27-.072.718.033.621.081.361.014.146.038.562.341.257.104-.169-.131-.381-.24-.564-.356-.269-.17.178.134.188.143-.113-.104-.234-.196-.345-.303-.438-.422-.861-.852-1.263-1.308-1.045-1.186-1.515-1.84-2.45-3.11-2.118-2.876-4.119-5.92-6.626-8.479-2.709-2.762-6.95 1.482-4.244 4.243z" />
    <path d="m583.755 278.025c15.105.214 30.07 2.775 44.735 6.314 3.202.773 6.393 1.618 9.519 2.661 2.444.815 4.31 1.427 6.488 2.861.194.128.388.259.573.401-.613-.469-.065-.038.037.071.695.74 1.456 1.421 2.154 2.161 1.372 1.454 2.679 2.977 3.902 4.559 2.648 3.425 4.962 7.116 7.082 10.886 4.357 7.748 7.845 15.947 10.999 24.246 1.281 3.37 2.328 6.882 3.88 10.139 1.272 2.67 2.876 5.185 4.444 7.686 3.558 5.674 7.661 11.386 10.064 17.654.486 1.267.918 2.581 1.133 3.925-.094-.588.034.344.036.385.013.28.012.559.02.839.005.174-.014.364-.031.535.073-.737-.137.477-.177.631-.209.804-.948 2.086-1.404 2.643-.794.972-1.745 1.825-2.727 2.601-1.253.99-3.821 2.516-5.376 3.938-1.743 1.594-2.651 3.955-1.439 6.17 1.388 2.536 4.658 3.729 7.165 4.746 1.661.674 3.352 1.264 5.059 1.81 1.167.374 3.28 1.017 3.886 1.279 2.483 1.075 3.641 2.74 5.027 5.357 2.423 4.574 4.708 9.214 7.193 13.758 5.044 9.224 10.382 18.283 15.555 27.435 2.639 4.669 5.236 9.362 7.728 14.111 2.285 4.355 4.337 8.82 7.113 12.896 4.872 7.155 11.089 13.154 17.282 19.143 5.904 5.709 11.415 11.569 16.097 18.335 3.758 5.431 7.289 11.029 10.372 16.872 6.255 11.854 10.486 24.858 10.661 38.35.211 16.333-5.512 31.903-13.996 45.674-2.731 4.432-5.727 8.704-8.93 12.806-.996 1.276-1.244 2.999 0 4.243 1.037 1.037 3.24 1.284 4.243 0 11.469-14.687 21.049-31.524 23.792-50.205 2.106-14.345.12-28.793-5.217-42.242-2.55-6.425-5.685-12.589-9.246-18.511-3.737-6.214-7.792-12.387-12.435-17.965-5.582-6.707-12.196-12.426-18.281-18.655-3.059-3.131-6.008-6.396-8.537-9.976-2.749-3.89-4.789-8.123-6.975-12.337-5.041-9.719-10.545-19.186-15.986-28.684-5.302-9.256-10.259-18.654-15.251-28.076-1.467-2.77-3.352-5.409-6.129-6.987-2.755-1.565-5.994-2.219-8.956-3.277-1.638-.585-3.28-1.205-4.802-2.054-.274-.153-.539-.316-.805-.483-.747-.467.3.148-.117-.067-.141-.073-.286-.251-.389-.368.263.37.309.43.141.18-.152-.282-.114-.181.113.302.021-.602-.047 1.022-.033.924.071-.504-.415.626-.101.189.15-.209.453-.477-.09.08.128-.132.243-.283.387-.399.158-.128.31-.272.464-.406.562-.491-.526.376.114-.088.488-.354.983-.697 1.479-1.039 4.588-3.168 9.395-7.112 9.563-13.191.085-3.077-1.074-6.101-2.283-8.871-1.37-3.139-3.079-6.122-4.848-9.05-1.896-3.138-3.896-6.21-5.824-9.328-.806-1.303-1.602-2.614-2.349-3.953-.274-.49-.542-.983-.797-1.482-.142-.276-.281-.554-.414-.834-.048-.102-.509-1.172-.267-.572-3.214-7.983-5.962-16.1-9.585-23.926-3.847-8.311-8.368-16.357-14.212-23.441-2.077-2.518-4.314-5.231-7.137-6.942-2.42-1.467-5.182-2.443-7.86-3.32-6.512-2.134-13.26-3.563-19.978-4.879-6.427-1.259-12.901-2.5-19.409-3.241-5.346-.609-10.724-.874-16.102-.95-3.868-.051-3.869 5.949-.005 6.003z" />
    <path d="m397.663 312.906c.196.159-.528-.891-.23-.281.109.224.242.439.354.662.371.734.705 1.487 1.039 2.239.225.507.446 1.015.666 1.525.128.296.254.592.381.889.15.351.556 1.259.155.363.659 1.472 1.246 2.981 1.859 4.473 3.416 8.31 6.73 16.663 10.049 25.013 4.009 10.083 8.004 20.172 12.03 30.249 3.588 8.979 7.187 17.955 10.913 26.878 1.413 3.383 2.836 6.764 4.331 10.112.82 1.836 1.618 3.722 2.641 5.458.124.211.251.421.398.618.966 1.298 2.596 1.958 4.105 1.076 1.28-.749 2.049-2.797 1.076-4.105-.954-1.282-1.578-2.879-2.242-4.319-.596-1.291-1.171-2.592-1.739-3.895-.325-.746-.648-1.494-.968-2.243-.177-.413-.353-.827-.529-1.241-.091-.214-.181-.427-.272-.641-.139-.329-.291-.69-.044-.103-3.649-8.669-7.161-17.396-10.658-26.128-4.057-10.13-8.076-20.275-12.105-30.416-3.447-8.675-6.887-17.353-10.417-25.996-1.268-3.104-2.544-6.205-3.875-9.283-.613-1.418-1.168-2.964-2.003-4.272-.194-.304-.395-.65-.673-.875-1.259-1.017-3.012-1.231-4.243 0-1.051 1.053-1.266 3.22.001 4.243z" />
    <path d="m398.663 308.898c-.577.698-1.288 1.287-1.988 1.856-.207.169-.419.331-.627.499-.486.391.578-.429.061-.049-.097.071-.191.145-.287.217-.629.473-1.266.934-1.907 1.389-2.973 2.11-6.033 4.098-9.11 6.051-6.407 4.068-12.913 7.995-19.525 11.721-1.15.648-2.303 1.291-3.472 1.905-.39.205-.784.401-1.177.598-.903.454.653-.189-.033.016-3.691 1.102-2.119 6.895 1.595 5.786 1.793-.536 3.519-1.676 5.139-2.578 2.951-1.644 5.869-3.349 8.772-5.075 6.824-4.057 13.629-8.202 20.139-12.752 2.263-1.582 4.885-3.191 6.662-5.344 1.031-1.249 1.223-3.02 0-4.243-1.061-1.059-3.206-1.252-4.242.003z" />
    <path d="m403.296 310.179c.155-2.33-1.324-4.776-2.283-6.798-.236-.498-.474-.995-.704-1.495-.11-.239-.219-.478-.324-.719-.228-.523.226.611-.096-.234-.267-.702-.447-1.42-.653-2.14-.946-3.319-2.1-6.583-3.196-9.855-2.602-7.772-5.583-15.655-6.927-23.767.168 1.013-.002-.106-.019-.35-.038-.519-.044-1.038-.092-1.557-.175-1.877-.545-3.723-1.005-5.548-.91-3.606-2.05-7.147-2.563-10.842-.34-2.443-3.517-2.602-5.014-1.324-5.513 4.709-10.003 10.538-14.884 15.868-2.6 2.839-5.362 5.528-8.048 8.285-2.928 3.005-5.849 6.018-8.857 8.943-3.428 3.335-6.974 6.549-10.737 9.503-1.37 1.075-.91 3.106 0 4.243.308.385-.455-.668-.182-.234.068.107.15.209.223.313.133.191.26.386.385.583.35.551.674 1.118.986 1.69.754 1.38 1.438 2.799 2.098 4.226.798 1.724 1.556 3.467 2.296 5.216-.264-.623.081.195.111.265.104.249.208.498.312.747.175.421.349.843.522 1.264.425 1.035.846 2.073 1.263 3.111 3.048 7.583 5.874 15.262 9.101 22.773.556 1.295 1.122 2.592 1.777 3.84.42.799.929 1.804 1.647 2.363 1.277.995 2.998 1.245 4.243 0 1.036-1.036 1.285-3.241 0-4.243-.055-.043-.217-.153-.229-.223-.046-.274.519.811.205.254-.203-.36-.432-.704-.627-1.07-.562-1.056-1.051-2.151-1.53-3.246-.156-.356-.308-.713-.461-1.069-.338-.788.154.378-.182-.432-.346-.836-.691-1.672-1.03-2.511-.732-1.809-1.449-3.623-2.163-5.439-3.131-7.963-6.15-15.989-9.687-23.783-1.363-3.003-2.764-6.051-4.837-8.639v4.243c6.652-5.22 12.587-11.253 18.477-17.299 2.746-2.818 5.568-5.572 8.254-8.447 2.533-2.712 4.951-5.529 7.419-8.299 2.652-2.976 5.339-5.961 8.375-8.555-1.671-.441-3.343-.883-5.014-1.324.454 3.268 1.389 6.421 2.239 9.601.647 2.419 1.01 4.622 1.233 7.06.33 3.595 1.36 7.124 2.372 10.574 2.322 7.913 5.204 15.644 7.615 23.527.565 1.846 1.087 3.623 1.888 5.394.542 1.198 1.132 2.374 1.67 3.575.416.928-.177-.491.173.403.1.254.198.51.282.77.072.22.108.478.197.689.215.511.028-.626-.021.121-.108 1.618 1.456 3 3 3 1.716-.002 2.895-1.378 3.002-3.002z" />
    <path d="m603.608 412.054c-.585-.108-1.17-.216-1.756-.324.698.698 1.397 1.397 2.095 2.095-2-6.238-.682-13.719 1.419-19.943.153-.454.312-.906.486-1.352.049-.125.102-.249.15-.374.229-.591-.279.613.004-.006.373-.814.739-1.629 1.14-2.43.997-1.992 2.102-3.944 3.395-5.76.164-.231.332-.459.503-.685-.312.412-.038.051.119-.135.362-.428.731-.847 1.131-1.24.15-.147.302-.29.46-.429.254-.224.577-.398.087-.09.157-.099.305-.213.464-.31.417-.252.609-.192.057-.089.163-.031.387-.111.539-.171.525-.21-.341.051-.187.023.43-.081.369.026-.121-.048.581.088-.106-.082-.054-.063.398.149.392.315.039-.04.13.13.275.288.419.401.354.278.024.007-.06-.11.068.094.138.189.2.287.182.292.359.584.519.889.068.13.139.264.195.4-.027-.066-.13-.332-.03-.014.104.33.193.66.256 1-.09-.478.009.203.014.368.012.394-.003.792-.044 1.184.05-.481-.087.411-.12.551-.07.305-.152.607-.243.906-.262.863-.42 1.237-.718 1.861-1.333 2.791-3.153 5.317-4.902 7.856-2.228 3.234-4.205 6.687-6.078 10.136-1.104 2.034-1.854 4.111-2.31 6.376-.41 2.04-.666 4.177-1.694 6.018-.931 1.668-.114 3.908 1.793 4.407.412.108.824.216 1.236.324 3.738.979 5.333-4.806 1.595-5.786-.412-.108-.824-.216-1.236-.324.598 1.469 1.195 2.938 1.793 4.407 2.136-3.825 1.84-8.364 3.893-12.187 1.839-3.426 3.801-6.866 6.004-10.074 3.723-5.421 9.119-12.463 6.241-19.401-1.098-2.647-3.192-5.219-6.286-5.321-2.502-.083-4.698 1.463-6.345 3.207-3.318 3.512-5.647 8.072-7.456 12.515-1.442 3.544-2.27 7.351-2.775 11.132-.607 4.539-.693 9.319.72 13.727.301.94 1.062 1.905 2.095 2.095.585.108 1.17.216 1.756.324 1.592.293 3.235-.438 3.69-2.095.404-1.456-.491-3.392-2.092-3.688z" />
    <path d="m719.797 711.978c-3.708 2.615-7.741 4.818-12.154 5.963-2.165.562-4.35.818-6.587.676-2.415-.153-4.613-1.102-6.897-1.817-2.501-.784-5.041-1.437-7.561-2.153-2.434-.692-4.805-1.557-7.222-2.298-4.739-1.454-10.039-2.829-15.033-2.486-3.994.274-8.187 1.527-11.086 4.423-2.646 2.644-3.512 6.364-1.946 9.801 1.772 3.889 6.193 6.071 9.799 7.924 2.125 1.091 4.41 2.317 6.759 2.817 1.937.412 3.014.423 4.83.783 3.599.714 7.235 1.245 10.861 1.796 1.584.24 3.169.476 4.752.721.538.083 1.076.165 1.612.259.598.105.993.43.005-.149-.46-.598-.919-1.195-1.379-1.793 0 .002.001.004.001.006.46-1.129.919-2.259 1.379-3.388-.003.002-.007.003-.01.005-1.481.657-1.829 2.818-1.076 4.105.893 1.527 2.617 1.735 4.105 1.076.003-.002.007-.003.01-.005 1.257-.557 1.622-2.186 1.379-3.388-.506-2.496-4.045-2.457-5.977-2.75-3.207-.486-6.416-.962-9.617-1.49-1.449-.239-2.898-.485-4.339-.768-.743-.146-1.481-.316-2.229-.435-.579-.092-1.162-.163-1.745-.231-.184-.021-.369-.041-.554-.061-.588-.064.233.06-.135-.024-1.99-.455-3.794-1.337-5.604-2.267-1.845-.948-4.056-2.087-5.565-3.239-.347-.265-.673-.568-.978-.879-.148-.151-.724-.892-.468-.516-.175-.258-.318-.527-.474-.796-.223-.386.132.445.009.033-.056-.186-.099-.388-.168-.569-.18-.468-.01-.041-.003.118-.007-.15-.017-.299-.02-.449s.015-.296.021-.445c-.03.71-.069.302 0 .139.092-.215.365-.934.069-.348.179-.353.372-.687.598-1.012-.363.523.208-.206.341-.339.128-.128.819-.722.398-.396.646-.499 1.376-.904 2.115-1.247.011-.005.32-.135.739-.277.416-.141.838-.263 1.264-.369 1.035-.257 1.526-.331 2.51-.39 4.576-.274 9.343 1.051 13.668 2.413 2.422.763 4.808 1.607 7.254 2.296 2.374.668 4.762 1.289 7.116 2.027 2.776.87 5.353 1.799 8.286 2.019 2.663.199 5.397-.144 7.984-.776 5.034-1.229 9.776-3.698 13.991-6.67 1.322-.932 1.944-2.622 1.076-4.105-.764-1.307-2.773-2.014-4.104-1.075z" />
    <path d="m101.878 660.147c5.947 6.324 11.527 12.972 17.15 19.582 5.543 6.516 11.177 12.96 17.285 18.957 7.073 6.946 14.758 13.252 22.918 18.88 10.414 7.184 21.567 13.248 33.022 18.596 15.805 7.38 32.189 13.494 48.751 18.937 2.469.811 4.943 1.607 7.421 2.39 3.69 1.166 5.27-4.625 1.595-5.786-16.989-5.367-33.901-11.352-50.106-18.604-11.864-5.309-23.45-11.317-34.318-18.466-2.275-1.496-4.517-3.043-6.721-4.641-1.051-.762-2.092-1.536-3.125-2.322-.222-.169-.443-.339-.664-.508-.348-.266.387.302.043.033-.124-.097-.249-.193-.373-.29-.523-.408-1.044-.82-1.563-1.235-3.634-2.908-7.142-5.974-10.517-9.179-6.206-5.893-11.924-12.262-17.487-18.757-5.548-6.478-10.989-13.049-16.754-19.338-.766-.836-1.538-1.666-2.314-2.492-2.651-2.819-6.888 1.43-4.243 4.243z" />
    <path d="m539.999 749.564c-.002-.009.261-1.395.445-2.026.441-1.507 1.03-2.974 1.665-4.409 1.135-2.566 2.408-5.078 3.788-7.521 3.206-5.675 6.481-11.319 9.933-16.849 7.296-11.687 15.672-24.405 27.381-32.121 2.46-1.621 5.067-2.985 7.902-3.813 1.067-.312 2.102-.537 3.205-.618.953-.07.197.19.112-.111.113.397-.207-.256-.412-.495-.308-.36.092-.197-.096-.252-.107-.031.053-.142-.094.21-.137.327-.203.69-.339 1.021-.416 1.015-1.02 1.981-1.593 2.913-1.564 2.542-3.362 4.945-5.186 7.304-3.996 5.167-8.02 10.415-12.319 15.333-4.118 4.71-8.694 8.975-13.344 13.149-8.304 7.453-16.89 14.999-21.667 25.324-6.792 14.681-4.429 30.712-5.996 46.344-1.913 19.088-6.315 37.863-7.119 57.072-.316 7.565-.686 15.127-1.088 22.687-1.281 24.095-2.814 48.188-4.957 72.223-.98 10.983-2.047 21.975-3.593 32.895-1.378 9.731-3.816 18.999-6.085 28.549-3.875 16.311-7.051 33.007-13.488 48.562-2.614 6.318-6.383 11.924-9.38 18.027-1.7 3.462-1.91 7.25 2.294 8.81 1.758.652 3.684.85 5.527 1.135 3.657.565 7.309 1.109 10.863 2.168 8.331 2.482 15.843 6.993 23.501 10.992 5.261 2.747 10.058 4.584 15.141 7.101 4.341 2.15 8.585 4.498 12.79 6.902 10.745 6.143 21.253 12.713 31.58 19.534 9.446 6.239 18.859 12.642 27.676 19.754 2.908 2.346 5.845 4.76 8.356 7.539 4.557 5.043 9.664 10.149 13.155 16.008 2.666 4.475 4.247 12.147-.547 15.933-2.476 1.955-6.531 2.337-9.546 2.809-3.478.545-7.006.799-10.521.953-3.816.167-7.654.219-11.472.048-3.86-.174-3.852 5.827 0 6 4.266.192 8.56.116 12.822-.113 3.603-.194 7.2-.542 10.766-1.102 3.399-.533 7.183-1.141 10.19-2.907 5.872-3.449 7.495-10.639 6.456-16.957-1.234-7.501-7.01-13.566-11.892-19.01-3.08-3.434-5.948-6.943-9.416-9.996-3.741-3.294-7.709-6.336-11.706-9.311-10.039-7.471-20.469-14.426-31.029-21.133-10.044-6.379-20.233-12.598-30.763-18.148-3.951-2.083-7.999-3.832-12.064-5.667-8.143-3.676-15.72-8.491-23.924-12.042-4.051-1.753-8.205-3.26-12.547-4.11-2.952-.578-5.943-.924-8.903-1.453-.855-.153-1.682-.407-2.528-.579.424.086-.297.001-.257-.131.048-.156.537.795.659 1.078.05.116-.113.452.022.188.047-.091.327-.961.191-.623.417-1.036 1.028-2.019 1.575-2.989 3.785-6.705 7.352-13.341 10.073-20.567 3.099-8.231 5.399-16.741 7.483-25.277 2.031-8.32 3.829-16.696 5.905-25.005 1.143-4.575 2.421-9.082 3.279-13.721 1.873-10.121 3.01-20.39 4.063-30.623 2.591-25.169 4.258-50.438 5.697-75.696.529-9.294 1.018-18.592 1.434-27.892.72-16.065 3.2-31.746 5.518-47.639 1.416-9.711 2.597-19.483 2.671-29.309.058-7.849.034-15.477 2.352-23.063 3.506-11.469 11.828-19.594 20.516-27.383 4.639-4.158 9.289-8.31 13.526-12.885 4.59-4.955 8.681-10.41 12.869-15.705 3.561-4.503 7.745-9.254 9.769-14.713 1.716-4.627-1.014-8.369-5.989-7.892-13.445 1.289-24.288 13.907-31.928 23.852-8.331 10.844-15.681 22.823-22.002 34.95-1.467 2.815-2.829 5.706-3.952 8.677-.884 2.337-1.724 4.891-1.195 7.404.797 3.78 6.582 2.182 5.787-1.592z" />
    <path d="m339.44 291.441c-10.73 5.477-22.092 9.758-33.606 13.268-5.126 1.562-10.303 2.784-15.506 4.045-5.178 1.255-10.228 3.243-14.817 5.958-8.825 5.221-15.655 13.02-21.163 21.563-6.39 9.912-11.42 20.726-16.612 31.292-5.544 11.284-11.056 22.602-17.388 33.471-3.111 5.341-6.422 10.571-10.035 15.587-2.373 3.294-5.049 6.357-7.379 9.679-3.858 5.5-7.167 11.401-10.4 17.282-4.259 7.746-8.288 15.619-12.168 23.562-3.874 7.931-7.603 15.936-11.079 24.049-2.708 6.319-5.411 12.707-7.389 19.3-.318 1.061-.612 2.131-.853 3.212-.353 1.58.479 3.246 2.095 3.69 1.506.414 3.336-.507 3.69-2.095 1.274-5.706 3.566-11.229 5.772-16.623.331-.808.665-1.615 1.002-2.42.104-.247.207-.495.312-.742-.223.528.012-.027.067-.157.234-.549.468-1.098.704-1.646.81-1.884 1.635-3.761 2.472-5.633 1.797-4.021 3.647-8.018 5.539-11.995 7.012-14.742 14.327-29.573 23.14-43.341.738-1.152 1.492-2.295 2.278-3.415.309-.44.622-.877.943-1.308.151-.204.838-1.056.153-.211.171-.21.337-.425.507-.635 3.885-4.798 7.504-9.788 10.843-14.981 6.744-10.489 12.464-21.594 17.999-32.755 5.426-10.942 10.632-22.011 16.546-32.702 4.888-8.836 10.368-16.991 18.3-23.343 3.252-2.604 7.875-5.264 11.861-6.794 4.911-1.884 10.098-2.757 15.165-4.107 11.685-3.113 23.151-7.214 34.194-12.137 2.646-1.18 5.263-2.422 7.844-3.739 1.443-.736 1.861-2.763 1.076-4.105-.859-1.464-2.658-1.813-4.107-1.074z" />
    <path d="m613.301 621.281c27.397-5.149 57.783-5.659 83.171 7.449 10.377 5.358 19.635 13.025 25.582 23.189 6.058 10.354 7.148 21.811 8.056 33.518 1 12.888 1.789 26.042.565 38.941-1.094 11.523-5.08 23.014-8.346 34.061-6.906 23.36-15.217 46.399-21.294 69.993-3.232 12.548-5.834 25.268-8.471 37.95-3.858 18.555-7.532 37.148-11.148 55.751-3.98 20.479-7.876 40.974-11.714 61.48-3.431 18.332-6.819 36.671-10.141 55.023-2.193 12.117-4.391 24.236-6.427 36.381-2.334 13.924-3.694 28.009-5.411 42.018-.434 3.545-.909 7.543-1.355 10.6-.551 3.777 5.23 5.408 5.786 1.595 2.322-15.923 3.63-32.831 6.037-48.162 1.624-10.345 3.526-20.65 5.375-30.957 3.177-17.712 6.428-35.41 9.719-53.101 3.848-20.685 7.753-41.359 11.736-62.019 3.759-19.498 7.578-38.985 11.56-58.439 2.883-14.085 5.771-28.185 9.153-42.161 5.121-21.162 12.461-41.805 18.837-62.609 3.851-12.566 7.716-25.182 10.615-38.01 2.711-11.991 2.253-24.636 1.656-36.834-.308-6.3-.771-12.594-1.367-18.873-.568-5.973-1.249-11.904-3.1-17.641-3.702-11.475-10.966-21.44-20.424-28.864-21.108-16.568-49.024-20.822-75.145-19.255-8.425.506-16.807 1.628-25.1 3.187-3.79.716-2.185 6.499 1.595 5.789z" />
    <path d="m424.116 111.545c5.372 1.88 18.313 13.129 18.313 13.129 1.381-1.17 32.803-35.305 67.318 2.097 7.738-15.624 27.755-18.728 26.692-4.151-2.934 40.245-22.094 39.073-22.094 39.073s-4.288 23.954-5.223 38.166c-.421 6.402-8.376 8.72-7.728 14.432.875 7.715 1.32 25.736 1.32 25.736l31.284 5.133s39.872 27.484 50.803 22.411c18.408-8.544 27.181-25.351 31.204-41.802 5.8-23.721 26.208-38.719 27.202-47.238 2.224-19.052-11.5-13-29.629-20.507-6.81-2.82-11.67-8.301-15.06-14.943-3.311-6.485 7.738-28.997 4.691-34.548-8.408-15.314-31.009-12.187-40.526-24.734-4.25-5.603-4.197-11.645-7.471-18.764-12.397-26.955-19.899-53.35-55.644-61.193-23.083-5.064-65.721-7.834-82.301 9.55-7.161 7.508-6.314 4.51-11.727 12.629-54.118-14.926-96.782 45.942-50.366 84.654-3.227 4.089 2.417 9.995-1.176 14.349 10.281 5.449 9.485 1.911 18.667 8.333 4.025-13.786 3.553-8.708 22.518-22.991.001.002 19.424-2.15 28.933 1.179z" />
  </g>
  <path d="m488.745 193.868c-2.341 0-5.033-.311-8.262-.943-4.17-.817-6.887-4.859-6.071-9.029.817-4.17 4.859-6.888 9.029-6.071 3.456.677 5.705.85 6.685.514.948-.325 2.581-1.832 4.648-3.74l.913-.842c3.129-2.874 7.996-2.668 10.87.461s2.668 7.996-.461 10.87l-.887.817c-5.639 5.207-9.492 7.963-16.464 7.963z" fill="#ff89d8" opacity=".5" />
  <path d="m446.274 215.279c6.65.723 14.427-.91 19.516-5.434 4.811-4.276 9.451-10.743 9.874-17.351.104-1.619-1.453-3-3-3-1.71 0-2.896 1.377-3 3-.008.132-.107.868-.021.355-.06.352-.138.7-.227 1.046-.177.681-.401 1.357-.672 2.005-.345.825-1.181 2.331-1.831 3.359-1.494 2.359-3.235 4.449-5.366 6.343-.224.199-.452.393-.683.584-.713.587.44-.293-.275.21-.373.263-.75.504-1.154.718-.265.14-.536.267-.809.389-.186.082-.168.075.053-.022-.143.058-.288.114-.433.168-.7.25-1.399.492-2.114.697-3.218.923-6.523 1.296-9.859.933-1.613-.175-3 1.504-3 3 .001 1.768 1.383 2.824 3.001 3z" fill="#1b1464" />
  <path class="eye" d="m486.332 168.227c-1.113 4.345-5.306 5.773-9.406 5.694-4.36-.084-9.12-1.576-12.494-4.401-1.471-1.231-3.604.88-2.121 2.121 6.946 5.813 23.886 9.21 26.915-2.617.478-1.871-2.415-2.669-2.894-.797z" fill="#1b1464" />
  <path d="m459.727 160.226c3.674-3.213 8.865-4.596 13.765-4.737 2.7-.078 5.084.125 7.515.618 1.246.253 2.48.569 3.691.954.605.192 1.204.402 1.796.63.063.024.758.305.498.196-.131-.055.604.275.741.339 1.467.686 3.234.411 4.105-1.076.76-1.3.398-3.415-1.076-4.105-10.961-5.125-25.78-5.368-35.278 2.938-1.22 1.067-1.092 3.151 0 4.243 1.211 1.211 3.019 1.07 4.243 0z" fill="#1b1464" />
  <path d="m515.777 132.757c-.377 1.706-.613 3.439-.966 5.15-.168.815-.364 1.625-.617 2.417-.122.381-.363.796-.43 1.186.187-.436.215-.507.085-.214-.051.112-.103.223-.157.333-.109.224-.226.444-.347.662-.757 1.374-.381 3.335 1.076 4.105 1.408.744 3.296.392 4.105-1.076.971-1.763 1.619-3.679 2.034-5.643.373-1.768.612-3.56 1.002-5.325.338-1.529-.46-3.318-2.095-3.69-1.518-.346-3.328.456-3.69 2.095z" fill="#1b1464" />
  <path d="m363.264 143.806c.235 4.196 1.1 8.358 2.157 12.416.396 1.519 2.163 2.589 3.69 2.095 1.564-.506 2.519-2.063 2.095-3.69-.488-1.875-.929-3.762-1.286-5.667-.092-.488-.178-.976-.257-1.466-.034-.209-.067-.417-.098-.626-.029-.19-.106-1.148-.038-.24-.07-.942-.211-1.876-.264-2.822-.088-1.564-1.317-3.075-3-3-1.549.07-3.093 1.322-2.999 3z" fill="#1b1464" />
  <path d="m426.787 39.571c-5.901-5.441-13.838-7.407-21.345-9.57-4.53-1.305-9.108-2.465-13.775-3.162-4.871-.727-9.74-.883-14.658-.851-2.5.016-4.949.259-7.402.738-2.148.42-4.328.692-6.441 1.277-.824.228-1.641.518-2.483.673-1.174.216-2.247.329-3.36.784-2.051.837-3.998 1.919-6.024 2.815-3.926 1.737-7.968 3.308-11.59 5.647-3.824 2.469-7.268 5.596-10.277 9.001-3.039 3.439-5.565 7.072-7.326 11.32-1.672 4.034-3.024 8.329-4.028 12.578-.562 2.378-.967 4.831-1.059 7.276-.084 2.218.491 4.241.797 6.405.138.973.142 1.962.372 2.924.286 1.198.899 2.333 1.395 3.456.86 1.944 1.909 3.566 3.204 5.248 1.289 1.674 2.433 3.469 3.878 5.019 1.485 1.592 3.306 2.834 4.878 4.336 1.608 1.536 2.869 3.365 4.334 5.028 1.159 1.316 2.477 2.479 3.696 3.737 1.062 1.097 2.201 2.392 2.607 3.604.481 1.433.29 2.418-.449 3.656s-1.89 2.321-3.085 3.41c-.588.536-1.195 1.053-1.77 1.604-.665.637-1.218 1.402-2.021 1.861-1.587.907-3.288 1.636-5.042 2.132-2.3.649-4.367 1.658-6.562 2.578-4.33 1.815-8.815 3.216-13.079 5.2-1.945.905-3.713 2.141-5.609 3.137-1.935 1.017-3.944 1.886-5.874 2.915-2.071 1.105-4.156 2.354-5.552 4.279-1.154 1.591-2.732 2.735-3.828 4.394-1.291 1.956-2.218 4.094-2.324 6.458h6c.005-.151.01-.303.015-.454.131-3.862-5.869-3.857-6 0-.005.151-.01.303-.015.454-.055 1.621 1.418 3 3 3 1.685 0 2.927-1.375 3-3 .067-1.495 1.149-3.229 2.207-4.261.742-.723 1.492-1.366 2.131-2.189.556-.717.865-1.297 1.582-1.806 3.457-2.457 7.572-3.878 11.209-6.045 3.708-2.209 7.731-3.616 11.754-5.13 2.21-.831 4.41-1.714 6.542-2.73 1.913-.911 4.052-1.213 5.995-2.074 1.815-.805 3.709-1.604 5.2-2.946 1.248-1.124 2.433-2.34 3.666-3.486 2.744-2.55 5.224-5.746 5.161-9.684-.065-4.029-2.661-7.2-5.389-9.897-1.254-1.239-2.519-2.446-3.641-3.809-1.326-1.61-2.579-3.248-4.131-4.654-1.587-1.438-3.357-2.688-4.768-4.31-1.296-1.49-2.411-3.166-3.608-4.735-1.14-1.495-1.954-3.291-2.643-5.033-.606-1.534-.568-3.42-.955-5.279-.841-4.041.279-8.294 1.416-12.175 1.151-3.927 2.311-7.99 4.262-11.606 1.971-3.653 4.851-6.867 7.829-9.729 2.969-2.852 6.224-5.198 9.915-7.029 3.77-1.871 7.721-3.347 11.479-5.245 1.703-.86 3.419-.943 5.234-1.449 2.058-.574 4.102-1.012 6.207-1.379 2.155-.376 4.218-.748 6.415-.798 2.238-.051 4.486-.006 6.724.033 4.531.08 9 .752 13.415 1.75 4.111.929 8.164 2.121 12.208 3.304 3.423 1.001 6.849 2.086 9.988 3.805 1.521.833 2.903 1.764 4.158 2.921 1.191 1.098 3.064 1.178 4.243 0 1.11-1.112 1.193-3.14-.003-4.242z" fill="#1b1464" />
  <path d="m664.793 508.235c14.503 3.004 29.22 4.869 43.669 8.152 7.295 1.657 14.528 3.662 21.518 6.344 6.808 2.613 13.079 6.104 19.239 9.978 5.756 3.62 11.438 7.358 16.328 12.075 2.249 2.17 4.008 4.172 5.556 6.696.357.582.694 1.176 1.005 1.784.166.324.323.652.476.982.065.141.13.282.19.425-.125-.293.006.025.051.142.517 1.354.9 2.739 1.161 4.164.096.526.008-.092.068.442.041.367.071.736.092 1.104.043.754.047 1.51.011 2.264-.068 1.456-.244 2.549-.653 4.143-.194.758-.417 1.511-.685 2.246-.165.454-.403.992-.808 1.678-.142.24-.3.468-.45.703-.268.418.188-.141-.257.311-.172.175-.343.352-.516.526-.483.487.254-.085-.306.257-.22.134-.462.257-.675.4-.432.29.412-.08-.087.048-.246.063-.482.156-.73.215-.324.076-.772.071-.172.051-.491.016-.965.012-1.455-.001-.434-.012.54.105.108.019-.116-.023-.233-.036-.348-.063-.315-.073-.628-.142-.939-.234-.24-.071-.477-.149-.712-.234-.12-.043-.239-.091-.358-.136-.426-.162.415.199-.002-.005-.574-.279-1.139-.566-1.686-.895-1.325-.797-1.821-1.19-2.854-2.11-4.855-4.323-7.969-9.978-9.818-16.184-2.352-7.895-3.001-16.192-5.532-24.041-.68-2.108-1.504-4.165-2.428-6.178-.676-1.473-2.805-1.837-4.105-1.076-1.512.885-1.754 2.626-1.076 4.105 3.626 7.904 4.368 16.689 6.364 25.06 1.787 7.496 4.84 14.528 10.06 20.28 3.663 4.037 9.198 8.278 14.998 7.67 6.785-.711 9.877-7.36 10.782-13.414.993-6.645-.526-13.128-4.318-18.682-4.007-5.869-9.589-10.416-15.343-14.483-6.233-4.406-12.791-8.629-19.662-11.968-7.165-3.482-14.719-6.116-22.4-8.199-15.164-4.113-30.767-6.147-46.182-9.053-1.845-.348-3.688-.711-5.527-1.092-1.585-.328-3.242.462-3.69 2.095-.406 1.485.504 3.359 2.098 3.689z" fill="#1b1464" />
  <path d="m622.589 582.357c-1.068-1.359.054.083.29.394.651.859 1.302 1.717 1.953 2.576 2.048 2.699 4.098 5.397 6.15 8.092 4.637 6.091 9.271 12.186 13.985 18.217 1.309 1.675 2.835 4.525 5.211 4.665 1.619.096 3-1.448 3-3 0-1.704-1.376-2.904-3-3-.002 0-.004 0-.005 0 .505.137 1.009.273 1.514.41.83.37.65.602.328.186-.202-.261-.427-.507-.635-.763-.666-.818-1.316-1.649-1.967-2.479-.397-.507-.792-1.014-1.187-1.522-.237-.305-.473-.61-.71-.915-.123-.159-.246-.318-.37-.477-.518-.669.157.205-.167-.216-1.112-1.442-2.223-2.886-3.331-4.331-4.463-5.82-8.903-11.657-13.337-17.499-1.159-1.527-2.298-3.072-3.483-4.58-1.002-1.275-3.193-1.049-4.243 0-1.255 1.258-1 2.963.004 4.242z" fill="#1b1464" />
  <path d="m515.94 1088.263c-1.819 6.913-4.074 13.717-6.351 20.49-2.861 8.512-5.863 16.978-8.948 25.411-2.842 7.769-5.749 15.515-8.796 23.206-.605 1.528-1.217 3.054-1.839 4.575-.257.628-.515 1.255-.776 1.881-.122.292-.245.584-.367.876.369-.88-.086.199-.186.434-1.266 2.954-2.704 5.811-4.162 8.676-3.071 6.035-6.171 12.064-8.651 18.373-1.134 2.886-1.877 5.897-2.979 8.787-.83 2.176-2.174 4.43-3.549 6.453-2.992 4.404-6.672 8.311-9.941 12.527-3.494 4.507-6.115 9.416-8.674 14.496-2.813 5.584-5.446 11.261-7.797 17.056-.535 1.32-1.053 2.647-1.545 3.984-.229.621-.459 1.244-.674 1.87-.047.137-.245.492.021-.047-.148.299-.292.598-.456.889-.213.379-.445.747-.69 1.106-.101.148-.206.294-.31.441-.519.731.37-.442-.203.272-.673.838-1.399 1.633-2.148 2.403-3.145 3.232-6.707 6.031-9.809 9.306-2.743 2.896-5.509 6.51-5.47 10.703.011 1.147.114 2.058-.1 3.119-.283 1.401-.678 2.854-.561 4.294.236 2.895 2.242 4.728 4.493 6.285 3.787 2.619 8.477 3.837 13.01 4.252 4.481.411 9.106-.189 13.208-2.08 4.419-2.037 6.859-6.329 10.113-9.734 1.859-1.946 3.782-3.829 5.643-5.773 2.671-2.789-1.566-7.038-4.243-4.243-1.861 1.944-3.783 3.828-5.643 5.773-1.822 1.906-3.442 3.948-5.116 5.98-.272.33-.561.645-.87.942-.125.12-1.063.859-.591.528-.811.569-1.665 1.064-2.574 1.46.475-.207.033-.017-.058.015-.268.093-.531.195-.801.283-.457.15-.92.281-1.387.397-.477.118-.959.219-1.443.305-.196.035-.393.067-.59.096.556-.084-.597.061-.704.071-1.023.09-2.052.119-3.079.092-.519-.014-1.038-.042-1.555-.083-.207-.017-.415-.036-.621-.057s-.414-.045-.62-.07c.282.038.24.031-.128-.023-1.922-.306-4.278-.932-5.785-1.569-.462-.196-1.636-.792-2.325-1.214-.392-.24-.772-.495-1.144-.763-.42-.303.512.443-.135-.107-.201-.171-.4-.342-.593-.521-.203-.19-.531-.666-.448-.437-.202-.559-.124.181-.036-.422.089-.615.004-.309-.011-.174.157-1.47.628-2.889.749-4.373.079-.973-.058-1.943-.025-2.917-.028.815.077-.292.146-.54.063-.225.152-.441.218-.665.172-.584-.258.42.076-.167.425-.749.824-1.492 1.33-2.194-.023.033.513-.672.26-.351-.258.328.325-.389.293-.35.373-.446.761-.879 1.157-1.304 2.971-3.185 6.395-5.905 9.475-8.979 1.538-1.535 3.001-3.175 4.21-4.984 1.248-1.866 1.891-3.991 2.678-6.073 2.085-5.513 4.546-10.88 7.143-16.168 2.44-4.969 4.853-10.081 8.099-14.585 3.027-4.199 6.615-8.049 9.771-12.193 1.588-2.085 3.083-4.25 4.313-6.568 1.345-2.536 2.194-5.183 3.052-7.906 1.931-6.135 4.761-11.929 7.654-17.656 3.165-6.265 6.194-12.444 8.823-18.948 2.894-7.158 5.63-14.38 8.312-21.619 5.703-15.39 11.356-30.88 15.935-46.649.386-1.329.759-2.662 1.111-4.001.983-3.742-4.803-5.337-5.786-1.6z" fill="#1b1464" />
  <path d="m629.119 468.067c1.412-.105 2.822-.234 4.234-.343.317-.025.636-.03.953-.055.744-.058-.495-.12-.229-.042-.523-.153-.506-.224-.781-.401-.486-.314-.255-.199-.13-.093.32.273.652.537.994.781.481.343 1.002.637 1.514.93.576.33-.541-.499-.01-.003.218.205.444.4.658.61.479.472.93.973 1.367 1.484.233.272.462.548.688.826.14.172.278.346.417.52.061.077.121.155.182.231.25.311-.347-.456-.1-.13.57.75 1.131 1.507 1.679 2.273 5.516 7.718 10.327 15.979 14.912 24.275 1.883 3.406 3.735 6.838 5.411 10.351.279.585.547 1.175.811 1.766.316.706-.237-.625.046.111.076.198.155.394.226.594.268.762.441 1.542.593 2.335.145.759-.024-.425.026.134.019.214.046.427.063.641.043.516.065 1.034.072 1.552.013 1.026-.038 2.052-.134 3.073-.023.247-.049.494-.078.741-.028.241-.102.745-.023.207-.089.602-.185 1.203-.297 1.801-.444 2.393-1.07 4.75-1.803 7.069-1.68 5.315-3.547 9.599-6.063 14.549-2.369 4.662-5.02 9.192-7.992 13.497-.665.964-1.348 1.916-2.051 2.853-.181.241-.363.481-.547.72.312-.405-.026.03-.152.189-.352.445-.71.885-1.074 1.32-1.175 1.404-2.413 2.768-3.773 3.996-.263.238-.535.466-.805.695-.501.425.088-.049.023-.009-.153.094-.295.217-.442.321-1.322.932-1.944 2.622-1.076 4.105.765 1.308 2.774 2.015 4.105 1.076 3.419-2.41 6.095-5.667 8.61-8.971 3.159-4.149 5.937-8.593 8.449-13.159 5.227-9.501 9.962-20.088 10.989-31 .363-3.862-.055-7.608-1.584-11.175-1.375-3.207-3.038-6.3-4.69-9.37-4.684-8.704-9.677-17.312-15.275-25.464-2.039-2.969-4.141-6.135-6.803-8.592-.534-.493-1.107-.966-1.724-1.353-.26-.164-.54-.294-.802-.456-.123-.076-.241-.167-.366-.238-.496-.282.554.476.192.152-1.224-1.097-2.478-1.393-4.082-1.273-1.443.108-2.884.243-4.326.35-1.616.12-3 1.293-3 3-.002 1.529 1.374 3.119 2.998 2.999z" fill="#1b1464" />
  <path d="m632.552 496.468c-17.915-3.049-41.06-10.461-39.699 16.436.735 14.523-5.925 50.668 4.231 61.02 3.618 3.688 20.012 7.912 25.035 6.028 9.479-3.557 8.87-21.371 10.201-30.302 2.733-18.342 12.729-38.657.232-53.182z" fill="#fff" />
  <path d="m616.293 493.104c-.672-3.383-2.833-6.296-6.305-7.116-2.939-.694-5.988-.099-8.914.357-.581.091-.069.012.043-.002-.164.021-.328.043-.493.061-.318.034-.636.068-.955.089-.913.061-1.831.07-2.745.105-2.13.081-4.259.183-6.384.352-3.749.297-7.895.53-11.379 2.043-10.029 4.355-19.805 9.287-29.808 13.703-.5.221-1.001.441-1.503.658-.263.114-.527.227-.79.341-.698.3.161-.062-.194.083-1.675.686-3.348 1.378-5.024 2.062-3.968 1.618-7.934 3.239-11.877 4.915-3.948 1.679-7.873 3.417-11.727 5.303-3.362 1.646-6.95 3.31-9.971 5.544-2.399 1.774-4.294 4.517-3.977 7.629.335 3.284 2.933 5.648 6.126 6.198 3.956.682 8.138-.504 11.88-1.741 3.773-1.248 7.448-2.71 11.282-3.778 7.498-2.088 14.945-4.252 22.255-6.938 7.523-2.764 14.739-6.565 22.622-8.259 1.761-.379 3.207-.569 5.091-.562 3.861.014 3.866-5.986 0-6-7.784-.028-15.281 3.31-22.331 6.246-6.494 2.705-13.097 5.072-19.844 7.066-3.872 1.144-7.79 2.14-11.652 3.314-3.433 1.044-6.741 2.446-10.172 3.493-1.793.547-3.658 1.06-5.519 1.31-.48.064-1.435.071-2.097.041-.364-.017.014.013.079.023-.177-.028-.356-.064-.53-.106-.24-.058-1.019-.393-.44-.096-.23-.118-.448-.245-.666-.381-.282-.176.191.142.201.153-.074-.083-.192-.203-.282-.278-.363-.304.239.474-.027-.086-.169-.357.22.576.076.21-.038-.097-.107-.248-.105-.354.007-.385-.065.625.019.248.017-.076-.012-.203-.014-.282-.022-.75-.138.201-.003-.165.068-.184.12-.395.171-.585-.195.721.092-.104.222-.345.302-.562-.201.107.157-.23.21-.198.403-.416.612-.616.093-.089.194-.172.293-.253-.416.337-.052.045.04-.01.381-.225.75-.473 1.129-.703 1.592-.965 3.22-1.868 4.867-2.734 3.484-1.832 7.053-3.499 10.651-5.095 6.748-2.993 13.63-5.66 20.433-8.521 10.225-4.301 20.197-9.201 30.272-13.838.768-.353 1.535-.706 2.307-1.051.265-.119.531-.234.796-.353.552-.247-.327.097-.327.135 0-.068 1.036-.271 1.169-.302 3.826-.878 7.771-1.129 11.682-1.315 3.213-.153 6.32-.326 9.505-.792.174-.025.348-.051.522-.075-.041.006-.498.063-.144.021.303-.036.607-.072.911-.1.633-.058 1.269-.093 1.905-.075.285.008.567.028.851.055-.769-.073.181.065.355.105.283.065.614.227.139.002.136.065.27.131.402.203.079.043.598.408.26.146-.275-.213.271.288.379.404-.379-.409.056.129.179.336.07.117.131.244.187.368-.196-.438 0 .031.021.111.114.434.236.858.324 1.299.316 1.59 2.21 2.502 3.69 2.095 1.656-.455 2.41-2.095 2.094-3.69z" fill="#1b1464" />
  <path d="m548.471 522.276c-8.31 4.634-17.11 8.92-24.389 15.136-2.606 2.226-5.908 5.669-4.614 9.429.98 2.848 3.308 5.131 6.132 6.115 2.498.87 5.297.586 7.826.027 6.145-1.357 11.629-4.741 17.737-6.219-.771-1.828-1.541-3.656-2.312-5.483-.707.331-1.237.562-1.615.717-.753.307-1.51.604-2.27.894-1.653.631-3.316 1.236-4.971 1.864-3.061 1.161-6.262 2.319-9.019 4.116-2.427 1.582-4.477 3.759-4.32 6.847.189 3.723 2.346 6.5 5.773 7.844 3.225 1.265 6.947 1.13 10.335.794-.266-1.964-.532-3.929-.797-5.893-4.44 1.117-9.273 4.629-9.254 9.675.008 2.15 1.222 4.148 3.16 5.084 1.372.662 2.984.848 4.478 1.071 7.815 1.167 15.771 1.387 23.656 1.664 8.88.312 17.77.476 26.642.98 1.825.104 3.65.224 5.472.381.731.063 1.462.132 2.192.21.405.043.81.089 1.214.139.129.016.258.034.387.049.566.066-.728-.112.128.019 3.056.47 5.973 1.47 9.006 2.061 10.07 1.96 23.441 2.237 29.78-7.418.89-1.355.27-3.317-1.076-4.105-1.463-.856-3.213-.282-4.105 1.076-.911 1.387-2.092 2.453-3.738 3.365-.423.234-.857.45-1.299.645.443-.194-.641.235-.794.288-1.005.345-2.036.609-3.079.809-.305.059-.611.111-.918.159-.065.01-.584.08-.134.023-.524.067-1.051.115-1.577.154-1.123.082-2.251.107-3.377.088-1.027-.017-2.052-.072-3.076-.158-.536-.045-1.071-.099-1.605-.162.013.001-1.03-.133-.472-.056-.314-.043-.628-.091-.941-.141-3.224-.51-6.296-1.571-9.49-2.165-2.94-.547-5.94-.81-8.92-1.029-15.833-1.162-31.754-.754-47.573-2.142-.897-.079-1.793-.165-2.689-.264-.399-.044-.797-.093-1.195-.14-.171-.02-.907-.122-.031-.001-.199-.028-.399-.055-.598-.084-.674-.098-1.346-.207-2.015-.335-.325-.062-.649-.13-.973-.201-.157-.034-.318-.081-.477-.103-.708-.1.289.232-.122-.024-.196-.122-.304-.29.163.156-.511-.488.057.132-.026.016-.158-.221-.14-.537.055.173-.131-.478.08-.297-.026.103.035-.133.009-.42.003-.561.017.412-.084.489.033.013.034-.138.089-.267.128-.403-.211.75.086-.11.185-.302.072-.141.177-.273.261-.405-.347.545.057-.066.166-.187.183-.2.377-.386.575-.571.622-.584-.438.267.289-.244 1.144-.806 1.836-1.069 3.201-1.412 3.195-.804 2.634-6.233-.798-5.893-1.278.127-2.561.216-3.847.214-.643-.001-1.287-.024-1.928-.078-.153-.013-1.047-.143-.49-.047-.321-.055-.64-.114-.957-.189-.263-.062-.523-.132-.781-.214-.194-.061-.895-.377-.372-.117-.224-.112-.443-.228-.66-.352-.106-.061-.204-.135-.307-.2-.348-.222.318.319.04.021-.166-.177-.572-.659-.249-.194-.141-.202-.257-.413-.379-.627.249.439.001-.003-.066-.243-.049-.175-.089-.356-.121-.535.059.332.007.15.01-.078.003-.241.05-.564.004-.798-.007-.035-.094.713-.034.394.023-.122.174-.476-.011-.038-.24.569.141-.179.139-.185-.03-.127-.066.088-.191.227.088-.099.169-.205.263-.299.177-.176.359-.343.54-.513.082-.077.173-.145.26-.217-.027.022-.421.302-.136.113.507-.335 1.008-.669 1.538-.968 2.536-1.429 4.61-2.163 7.367-3.198 3.184-1.195 6.4-2.331 9.483-3.775 1.335-.626 1.779-2.492 1.227-3.746-.608-1.384-2.051-2.097-3.539-1.737-5.033 1.218-9.66 3.69-14.558 5.32-2.415.804-4.137 1.301-6.281 1.198-.215-.01-.429-.025-.642-.05.742.087-.068-.03-.188-.067-.232-.071-.47-.145-.704-.21-.674-.187.395.318-.171-.091-.161-.116-.353-.21-.523-.316-.383-.241.46.486-.082-.067-.183-.186-.373-.359-.548-.554-.219-.261-.231-.273-.038-.037-.11-.157-.215-.318-.314-.482-.158-.261-.297-.531-.434-.804.392.784.069.282.084.204.119-.634-.084.847.014-.028-.146 1.302.097.093.095-.096.008.612-.303.557-.132.315.117-.166.195-.376.302-.552.133-.219.854-1.072.25-.398.22-.246.426-.504.652-.746.645-.693 1.347-1.332 2.069-1.944.355-.301.717-.594 1.082-.883.683-.54-.48.347.236-.18.221-.162.439-.328.66-.49.931-.68 1.88-1.334 2.841-1.972 1.956-1.297 3.957-2.524 5.978-3.716 4.044-2.384 8.185-4.593 12.284-6.878 3.374-1.88.352-7.064-3.027-5.18z" fill="#1b1464" />
  <path d="m582.067 531.286c-4.651.963-9.305 1.914-13.958 2.87-2.014.414-4.067.747-6.062 1.246-1.581.395-3.123 1.344-4.596 2.019-1.746.8-3.497 1.59-5.258 2.356-.421.183-.842.365-1.264.544.546-.232-.48.198-.682.279-.664.269-1.33.532-2.009.758-1.536.513-2.541 2.068-2.095 3.69.413 1.501 2.147 2.611 3.69 2.095 3.098-1.034 6.086-2.473 9.058-3.818 1.294-.586 2.586-1.18 3.874-1.779.352-.164.708-.322 1.056-.493.65-.318-.818.172-.413.182.567.013 1.263-.26 1.814-.373 1.151-.236 2.301-.473 3.452-.709 2.951-.607 5.903-1.213 8.854-1.82 2.045-.42 4.09-.839 6.134-1.262 1.587-.329 2.505-2.201 2.095-3.69-.453-1.647-2.098-2.424-3.69-2.095z" fill="#1b1464" />
  <path d="m601.94 510.986c.444.723.853 1.465 1.189 2.245-.101-.239-.202-.478-.302-.717.357.852.603 1.731.73 2.646-.036-.266-.071-.532-.107-.798.227 1.75.243 3.503.547 5.249.122.7.789 1.448 1.379 1.793.643.376 1.591.536 2.312.302.726-.235 1.426-.685 1.793-1.379.397-.752.448-1.476.302-2.312-.045-.261-.086-.522-.122-.785.036.266.071.532.107.797-.205-1.588-.213-3.186-.47-4.77-.307-1.89-1.182-3.683-2.176-5.302-.821-1.336-2.722-1.968-4.105-1.076-1.342.867-1.956 2.677-1.077 4.107z" fill="#1b1464" />
  <path d="m605.551 533.032c.444.723.853 1.465 1.189 2.245-.101-.239-.202-.478-.302-.717.357.852.603 1.73.73 2.646-.036-.266-.071-.532-.107-.798.227 1.75.243 3.503.547 5.249.122.7.789 1.448 1.379 1.793.643.376 1.591.536 2.312.302.726-.235 1.426-.685 1.793-1.379.397-.752.448-1.476.302-2.312-.045-.261-.086-.522-.122-.785.036.266.071.532.107.798-.205-1.588-.213-3.186-.47-4.77-.307-1.89-1.182-3.684-2.176-5.302-.821-1.336-2.722-1.968-4.105-1.076-1.342.866-1.956 2.676-1.077 4.106z" fill="#1b1464" />
  <path d="m608.592 555.649c.444.723.853 1.465 1.189 2.245-.101-.239-.202-.478-.302-.717.356.852.603 1.731.73 2.646-.036-.266-.071-.532-.107-.798.227 1.75.243 3.503.547 5.249.122.7.789 1.448 1.379 1.793.643.376 1.591.536 2.312.302.726-.235 1.426-.685 1.793-1.379.397-.752.448-1.476.302-2.312-.045-.261-.086-.522-.122-.785.036.266.071.532.107.798-.205-1.588-.213-3.186-.47-4.77-.307-1.89-1.182-3.684-2.176-5.302-.821-1.336-2.722-1.968-4.105-1.076-1.342.866-1.956 2.675-1.077 4.106z" fill="#1b1464" />
  <path d="m557.844 559.555c4.656-.122 9.315-.76 13.938-1.286 3.909-.445 7.885-1.136 11.824-1.216 3.856-.079 3.869-6.079 0-6-3.939.08-7.915.771-11.824 1.216-4.623.526-9.282 1.164-13.938 1.286-3.854.101-3.869 6.101 0 6z" fill="#1b1464" />
  <path d="m456.472 1289.128c1.327 7.895 9.462 11.946 16.812 11.888 3.992-.032 7.864-.911 10.724-3.869 1.058-1.094 2.025-2.322 2.983-3.507 1.278-1.581 2.403-3.206 2.5-5.31.075-1.62-1.432-3-3-3-1.687 0-2.925 1.375-3 3 .033-.708-.183.155.065-.227-.172.264-.302.556-.477.822-.363.55-.492.678-.959 1.225-.821.962-1.588 1.985-2.482 2.882-.924.928-1.681 1.312-2.728 1.583-1.339.347-2.546.411-4.004.401-2.513-.018-4.592-.414-6.818-1.807-2.097-1.312-3.403-3.133-3.83-5.676-.269-1.599-2.243-2.493-3.69-2.095-1.695.465-2.365 2.086-2.096 3.69z" fill="#1b1464" />
  <path d="m486.737 1296.44c1.352.197 2.33.954 3.577 1.692 1.252.741 2.568 1.282 4.008 1.5 2.956.448 6.157.344 9.05-.448 5.686-1.558 10.589-5.66 11.357-11.715-.734.964-1.468 1.929-2.202 2.893.281-.061.563-.121.845-.182 1.585-.341 2.507-2.192 2.095-3.69-.45-1.638-2.101-2.438-3.69-2.095-.282.061-.563.121-.845.182-1.408.303-2.041 1.618-2.202 2.893.052-.412-.074.242-.096.313-.077.253-.139.511-.237.758.141-.356-.093.178-.153.289-.128.232-.26.457-.402.68-.198.312-1.293 1.462-1.604 1.704-1.729 1.351-3.297 1.973-5.386 2.408-.253.053-.507.102-.763.139.345-.049.059-.01-.122.003-.599.043-1.195.092-1.795.107-1.177.03-2.315.028-3.273-.21-2.176-.543-4.07-2.642-6.567-3.005-1.601-.233-3.224.396-3.69 2.095-.388 1.409.481 3.454 2.095 3.689z" fill="#1b1464" />
  <path d="m507.594 1291.215c1.35 3.594 4.443 5.384 8.1 6.04 1.729.31 3.482.457 5.228.644.117.013 1.28.158.591.061.344.049.688.103 1.03.172.863.174 1.689.385 2.574.46 3.717.314 7.469-1.404 10.258-3.747 3.043-2.557 4.627-6.134 4.085-10.084-.2-1.456-1.988-2.345-3.292-2.149-1.451.218-2.609 1.424-2.601 2.946.001.229.002.458.004.687.021 3.86 6.021 3.868 6 0-.001-.229-.002-.458-.004-.687-1.964.266-3.929.532-5.893.797-.082-.596-.038.366-.043.492-.017.221-.008.189.027-.094-.033.187-.073.371-.122.554-.029.109-.294.877-.083.363-.109.266-.257.531-.402.779-.079.135-.516.784-.439.683.072-.094-.45.504-.564.621-.435.448-.814.778-1.059.955-1.204.872-2.02 1.272-3.215 1.615-.292.084-.588.141-.881.216-.365.061-.391.071-.078.03-.144.017-.288.029-.432.036-.331.01-.659.004-.99.005-.624.002.355.137-.284-.04-1.268-.352-2.597-.497-3.901-.643-.582-.065-1.164-.12-1.746-.18-.348-.036-.695-.075-1.043-.113-.149-.017-.299-.035-.448-.054.301.042.27.036-.093-.016-.58-.097-1.159-.196-1.73-.337-.276-.068-.55-.143-.82-.229-.176-.056-.351-.116-.524-.181.295.134.285.129-.028-.016-.231-.124-.456-.26-.687-.383-.573-.305.227.32-.203-.155-.141-.155-.488-.583-.2-.164-.08-.117-.507-1.028-.302-.481-.569-1.516-2.027-2.552-3.69-2.095-1.46.401-2.673 2.167-2.1 3.692z" fill="#1b1464" />
  <path d="m534.448 1289.409c1.494 1.488 2.858 3.073 4.59 4.301 1.844 1.308 3.976 1.852 6.213 1.961 2.073.102 4.212-.076 6.284-.177 1.37-.067 2.746-.344 4.052-.759 5.661-1.804 13.282-7.266 9.043-13.996-.598 1.469-1.195 2.938-1.793 4.407.204-.061.408-.121.612-.182 3.693-1.096 2.12-6.889-1.595-5.786-.204.061-.408.121-.612.182-1.8.534-2.848 2.732-1.793 4.407.059.094.465.912.338.573-.163-.436.103 1.012.033-.021.015.222.005.439.006.66-.008-1.149.05.172-.057.056-.111.312-.09.279.061-.098-.034.067-.068.134-.101.202-.045.061-.506.808-.27.478.228-.32-.333.371-.398.439-.177.183-.363.358-.555.526-.049.043-.715.551-.218.19-.22.16-.444.313-.672.46-.544.351-1.11.666-1.69.952-.249.123-.501.24-.755.351.561-.246-.253.093-.298.11-.531.198-1.07.374-1.617.522-.497.135-.995.23-1.5.327.785-.151-.272 0-.583.006-1.83.04-3.667.228-5.498.185-1.419-.034-2.562-.349-3.58-1.139-1.257-.975-2.28-2.261-3.403-3.38-2.74-2.728-6.985 1.512-4.244 4.243z" fill="#1b1464" />
  <path d="m567.631 1270.349c1.16-6.046.595-12.194.05-18.274-.546-6.086-1.032-12.132-.197-18.217.928-6.77 2.78-13.377 4.197-20.052 1.48-6.97 2.257-13.934 2.168-21.062-.085-6.854-.646-13.711-.27-20.566.177-3.223.539-6.488 1.404-9.607.1-.362.222-.716.351-1.069.086-.234.177-.466.269-.698.094-.236.522-1.229.116-.297 2.807-6.448 6.05-12.703 9.129-19.023 1.67-3.427 3.341-6.861 4.798-10.386.986-2.385 2.444-6.3-1.158-7.372-3.709-1.103-5.293 4.685-1.595 5.786-1.267-.377-2.011-1.528-2.053-2.604.021.544.093-.481.073-.439-.136.282-.171.689-.27.991-.145.442-.312.876-.483 1.309-.097.246-.202.489-.299.735-.179.453.088-.209.103-.244-.096.221-.19.444-.287.665-1.292 2.959-2.709 5.865-4.124 8.767-3.017 6.186-6.234 12.305-8.948 18.633-4.289 9.999-3.139 21.449-2.83 32.055.193 6.595-.008 13.088-1.228 19.586-1.235 6.581-3.039 13.04-4.249 19.626-.657 3.578-1.187 7.218-1.291 10.859-.095 3.352.156 6.705.443 10.042.542 6.3 1.569 13.14.394 19.262-.305 1.59.446 3.237 2.095 3.69 1.469.402 3.385-.497 3.692-2.096z" fill="#1b1464" />
  <path d="m466.668 1269.421c1.933-.079 3.867-.149 5.802-.182 1.105-.019 2.21-.028 3.314-.003.436.01.871.025 1.306.055.175.012.349.031.523.046.418.036-.881-.252-.474-.064.057.026.145.026.207.039 1.53.33 3.317-.455 3.69-2.095.344-1.511-.455-3.336-2.095-3.69-2.047-.442-4.251-.324-6.329-.291-1.982.032-3.964.103-5.945.184-1.566.064-3.075 1.334-3 3 .071 1.572 1.322 3.07 3.001 3.001z" fill="#1b1464" />
  <path d="m494.04 1270.358c2.608.389 5.234.647 7.862.85 2.155.167 4.334.348 6.498.3 1.568-.034 3.074-1.355 3-3-.072-1.596-1.319-3.037-3-3-2.1.046-4.214-.126-6.307-.286-1.268-.097-2.535-.208-3.801-.337-.581-.059-1.162-.123-1.742-.192-.264-.031-.527-.066-.791-.099-.377-.047.777.11.284.037-.137-.02-.273-.039-.41-.06-.829-.124-1.559-.138-2.312.302-.622.364-1.216 1.078-1.379 1.793-.323 1.428.438 3.444 2.098 3.692z" fill="#1b1464" />
  <path d="m525.093 1270.551c2.158-.062 4.319-.041 6.477-.045 1.876-.004 3.778.049 5.649-.12 1.559-.14 3.077-1.28 3-3-.067-1.505-1.326-3.15-3-3-1.871.168-3.772.115-5.649.12-2.159.005-4.319-.017-6.477.045-1.567.045-3.074 1.348-3 3 .071 1.587 1.319 3.048 3 3z" fill="#1b1464" />
  <path d="m436.317 1281.192c.864-.867 1.713-1.751 2.603-2.592.365-.345.748-.668 1.122-1.002.444-.396-.384.237.244-.19.194-.132.385-.268.584-.393.43-.271.877-.512 1.343-.717-.672.295.081-.006.185-.04.239-.077.48-.145.724-.205.091-.022.982-.2.646-.144-.34.057.489-.046.592-.053.517-.036 1.035-.043 1.553-.033.356.007.712.022 1.067.046.193.013.385.028.578.046.102.01.909.15.4.039-.519-.114.323.058.415.075.204.038.407.08.609.126.399.092.795.202 1.182.337.408.143.396.198.019-.008.196.107.399.195.591.31.08.047.159.096.236.148.26.184.202.136-.174-.143.068.005.371.374.377.368-.1.126-.352-.682-.069-.048.252.564-.191-.687-.035-.074.147.579.035-.647.008-.065-.04.871.122-.337.009.252-.295 1.536.43 3.311 2.095 3.69 1.481.337 3.374-.447 3.69-2.095.587-3.055-.558-5.854-3.356-7.352-2.118-1.134-4.575-1.507-6.946-1.626-2.784-.14-5.573.266-8.06 1.576-2.519 1.327-4.492 3.536-6.475 5.526-1.143 1.148-1.147 3.095 0 4.243 1.149 1.146 3.096 1.15 4.243-.002z" fill="#1b1464" />
  <path d="m539.976 752.559c-29.448-.036-58.895-.213-88.342-.414-29.428-.201-58.856-.424-88.284-.549-16.465-.07-32.93-.108-49.395-.096-3.861.003-3.867 6.003 0 6 29.434-.022 58.867.12 88.3.308 29.432.188 58.864.422 88.296.579 16.475.088 32.95.152 49.425.172 3.861.005 3.867-5.995 0-6z" fill="#1b1464" />
  <path d="m343.824 645.493c15.075 5.012 21.608-1.665 35.355 1.593 18.983 4.499 30.39 6.266 52.845 3.848 13.5-1.454 37.6-.394 55.697-3.341 13.901-2.264 22.485-11.029 30.807.069.369 7.817-3.089 20.543-12.355 24.75-9.166 4.161 2.017 9.927-2.109 15.071-13.822 17.231-13.786 10.298-13.786 10.298s9.247 8.534 3.028 14.541c-6.357 6.14-8.55 9.506-10.087 16.184-1.695 7.364-11.982 11.346-11.982 11.346s-3.95 15.556-10.65 20.556c-9.132-.512-26.702-8.808-46.333-18.398-13.579-6.633-26.413-7.287-39.854-13.01-19.089-8.128-37.639-19.771-46.147-15.579 5.903-39.608-3.882-58 15.571-67.928z" fill="#fff" />
  <path d="m305.202 625.918c6.624 1.439 13.073 3.731 19.443 6.014 7.925 2.841 15.775 5.883 23.64 8.885 7.124 2.719 14.25 5.458 21.492 7.848 2.666.88 5.352 1.723 8.085 2.369 2.746.649 5.403.835 8.221.869 6.154.073 12.318.03 18.461.464 5.937.42 11.784 2.067 17.754 1.722 6.023-.347 11.871-1.91 17.773-3.034 5.318-1.012 10.602-1.065 15.998-1.008 5.578.058 11.159.264 16.72.714 2.579.209 5.276.556 7.725.824 1.954.214 3.941-.052 5.856-.451 4.121-.86 8.024-2.55 11.998-3.897 1.966-.666 3.939-1.207 5.972-1.621.101-.021.595-.092.046-.018.183-.025.368-.044.553-.061.447-.042.895-.066 1.344-.065.428.001.858.022 1.283.073-.697-.083.413.123.653.186.011.003.76.26.325.091-.429-.167.282.141.299.151.465.256.912.533 1.395.758 1.19.555 2.419.899 3.681 1.238.456.122.921.235 1.36.41.463.185-.47-.349.219.124.503.345.164.11.077.034.593.518-.082-.202.157.207.268.458-.17-.54.08.195.139.41.261.825.363 1.246.106.435.187.875.259 1.317-.097-.599.001.007.013.16.019.233.042.466.057.699.061.965.051 1.933-.015 2.897-.034.497-.078.995-.147 1.488.07-.503-.096.524-.129.701-.197 1.057-.456 2.102-.774 3.129-.136.441-.283.879-.441 1.313-.088.24-.18.479-.273.717-.21.537.284-.624-.11.27-.405.917-.863 1.811-1.378 2.671-.251.419-.515.831-.793 1.232-.11.158-.222.315-.336.47-.542.737.202-.234-.143.18-.593.71-1.232 1.35-1.914 1.974-.106.097-.574.457-.117.113-.139.105-.282.206-.426.304-.355.242-.722.466-1.102.666-.15.079-.303.15-.455.227-.715.359.55-.134-.217.078-.404.112-.797.246-1.209.332-2.203.459-4.118.633-6.401.827-2.392.204-4.769.463-7.148.791-1.607.221-2.484 2.276-2.095 3.69.476 1.731 2.079 2.318 3.69 2.095 4.575-.631 9.281-.628 13.794-1.672 4.064-.939 7.265-4.034 9.504-7.41 2.363-3.563 3.801-7.784 4.378-12.003.543-3.968.7-9.459-2.047-12.72-1.618-1.922-4.056-2.285-6.321-2.986-1.653-.512-3.317-1.737-5.267-2.051-4.234-.683-8.491.606-12.459 1.98-4.027 1.395-8.023 3.128-12.245 3.85-.189.032-.379.064-.569.09.661-.088-.251.013-.318.018-.448.035-.897.053-1.347.044-1.136-.021-1.858-.181-3.204-.342-2.732-.328-5.474-.565-8.22-.75-5.682-.382-11.379-.54-17.073-.542-2.734-.001-5.479-.024-8.201.258-3.076.319-6.117.881-9.142 1.509-5.694 1.182-11.418 2.609-17.279 2.314-3.072-.154-6.102-.919-9.155-1.288-3.092-.374-6.203-.577-9.314-.697-5.773-.222-11.598.089-17.359-.293-.187-.012-.373-.035-.559-.05-.755-.058.748.129-.015 0-.562-.095-1.122-.192-1.68-.31-1.223-.258-2.433-.573-3.636-.911-6.833-1.918-13.499-4.452-20.137-6.947-8.056-3.029-16.073-6.161-24.14-9.16-7.1-2.64-14.243-5.267-21.552-7.279-1.395-.384-2.797-.739-4.211-1.046-1.582-.344-3.245.473-3.69 2.095-.412 1.5.505 3.346 2.095 3.691z" fill="#1b1464" />
  <path d="m499.823 677.605c.741.514 1.506 1.334 2.037 2.234.182.309.351.626.501.952-.2-.437.137.375.152.421.198.583.335 1.175.454 1.778.122.614.016-.266.047.415.014.306.037.608.039.914.002.304-.006.608-.025.912-.001.024-.109.966-.025.405-.088.585-.227 1.164-.4 1.729-.087.285-.184.566-.288.846-.145.391-.201.505-.259.631-.287.622-.601 1.23-.947 1.82-.173.294-.353.584-.542.867-.069.104-.617.826-.408.575-.194.234-.4.46-.617.673-.054.053-.627.523-.332.306-.525.387-1.08.633-1.496.765-1.207.382-2.467.581-3.7.858-.293.066-.586.132-.881.19-.058.011-.942.164-.438.096-.349.047-.695.05-1.045.061-.62.02-.285-.051.144.137-1.483-.648-3.22-.436-4.105 1.076-.744 1.271-.416 3.452 1.076 4.105 1.991.87 3.871.726 5.963.311 1.52-.302 3.109-.572 4.581-1.049 3.813-1.235 6.296-4.205 7.929-7.763 1.546-3.367 2.165-6.802 1.515-10.475-.654-3.696-2.846-6.852-5.902-8.971-1.332-.924-3.331-.246-4.105 1.076-.872 1.492-.259 3.179 1.077 4.105z" fill="#1b1464" />
  <path d="m491.653 701.732c.054.235.098.47.141.706-.127-.701.001.079.014.241.044.561.058 1.124.052 1.687-.006.576-.035 1.152-.083 1.725-.023.279-.056.557-.085.836.065-.643-.024.088-.045.184-.107.492-.272.967-.445 1.439-.297.81.258-.516-.117.277-.116.246-.232.491-.354.733-.451.891-.966 1.736-1.524 2.562.289-.428.003-.002-.148.176-.164.191-.333.378-.508.559-.354.367-.732.706-1.123 1.032.399-.333-.044.028-.213.143-.212.145-.428.283-.648.414-.221.131-.445.255-.674.371-.132.067-.831.354-.219.118-.48.185-.968.342-1.47.457-.078.018-.78.162-.362.085.39-.072-.407.031-.504.036-.262.012-.524.013-.786.003-.096-.004-.892-.098-.53-.035.365.064-.446-.107-.537-.13-.319-.081-.63-.182-.94-.292-1.482-.523-3.348.592-3.69 2.095-.382 1.679.509 3.13 2.095 3.69 5.412 1.91 11.387-.505 14.822-4.889 1.625-2.074 3.102-4.659 3.663-7.251.593-2.74.631-5.836.005-8.57-.35-1.531-2.195-2.579-3.69-2.095-1.604.522-2.472 2.053-2.097 3.693z" fill="#1b1464" />
  <path d="m480.253 720.953c.132.126.258.259.376.399-.198-.262-.203-.253-.014.025.086.143.165.29.235.442-.141-.338-.155-.347-.043-.026.029.167.157.894.08.167.035.334.043.671.03 1.006-.009.232-.07.774.006.24-.05.356-.125.709-.207 1.058-.148.632-.336 1.254-.539 1.87-.424 1.292-.932 2.556-1.335 3.855-.164.53-.294 1.064-.407 1.607-.044.209-.086.418-.147.623-.041.139-.087.276-.138.411.167-.376.18-.413.039-.108-.13.231-.247.467-.389.692-.084.134-.604.801-.145.249-.364.438-.755.85-1.181 1.229-.125.111-.252.218-.381.323.278-.21.279-.213.005-.011-.248.165-.49.335-.745.49s-.516.302-.782.438c-.122.063-1.105.455-.452.221-.559.201-1.118.383-1.7.505-.163.034-.328.065-.492.091.346-.043.406-.053.182-.031-.275-.024-.579.04-.859.038-.173-.001-1.191-.139-.408.007-.237-.044-.471-.089-.704-.152-.175-.047-1.044-.453-.408-.114-.29-.154-.57-.308-.845-.489-1.009 1.727-2.019 3.454-3.028 5.181.205.101.411.202.616.303 1.453.715 3.246.392 4.105-1.076.773-1.322.384-3.387-1.076-4.105-.205-.101-.411-.202-.616-.303-1.453-.715-3.246-.392-4.105 1.076-.857 1.465-.28 3.21 1.076 4.105 4.693 3.095 10.946 1.221 14.86-2.253 1.821-1.617 3.057-3.701 3.569-6.073.508-2.352 1.613-4.531 2.183-6.868.811-3.322.54-6.747-1.975-9.281-1.141-1.15-3.1-1.143-4.243 0-1.151 1.149-1.143 3.085.002 4.239z" fill="#1b1464" />
  <path d="m466.034 740.152c.717 1.862 2.158 4.151 1.884 6.219-.253 1.907-1.629 3.627-2.491 5.291-.354.683-.669 1.368-1.101 2.008-.268.397.199-.175-.271.331-.285.306-.575.599-.889.877-.061.054-.44.34-.068.066-.157.116-.322.225-.486.33-.297.189-.605.358-.92.515-.018.009-.317.144-.744.275-.209.064-.42.12-.632.17-.058.014-.697.147-.373.098-2.359.362-4.579-.547-6.823-1.136-2.383-.625-4.766-1.249-7.149-1.874-1.642-.43-3.307-.813-4.922-1.339-4.007-1.305-7.707-3.462-11.327-5.582-3.919-2.295-7.777-4.714-11.852-6.726-4.217-2.082-8.68-3.598-13.203-4.857-9.105-2.534-18.544-4.107-27.289-7.804-8.392-3.548-16.107-8.497-24.495-12.059-2.205-.937-4.438-1.804-6.729-2.508-1.404-.431-2.852-.703-4.252-1.135-.577-.178-1.131-.418-1.693-.638.923.361-.094-.043-.435-.195-.437-.194-.872-.393-1.306-.596-4.439-2.067-8.772-4.368-13.077-6.698-4.843-2.622-9.648-5.321-14.379-8.142-1.845-1.1-3.682-2.218-5.482-3.391-.681-.444-1.358-.894-2.021-1.366-.221-.157-.516-.484-.772-.568.252.083.605.506.213.157-.086-.077-.178-.146-.263-.224-.112-.101-.252-.306-.381-.376-.286-.153.525.75.344.44.293.501.367 1.267.242 2.108.237-1.601-.399-3.224-2.095-3.69-1.414-.388-3.452.483-3.69 2.095-.332 2.243.949 3.413 2.56 4.637 1.352 1.027 2.783 1.948 4.219 2.853 4.471 2.819 9.067 5.443 13.683 8.014 4.896 2.728 9.834 5.392 14.858 7.879 1.761.872 3.534 1.722 5.343 2.492 2.102.894 4.186 1.35 6.38 2.005 9.14 2.727 17.26 7.921 25.784 12.061 4.463 2.167 9.053 4.015 13.809 5.432 4.811 1.434 9.71 2.535 14.577 3.755 4.71 1.18 9.447 2.444 13.94 4.31 4.202 1.746 8.117 4.173 12.02 6.489 4.056 2.408 8.123 4.795 12.488 6.607 2.107.875 4.255 1.465 6.451 2.041 2.524.662 5.048 1.323 7.572 1.985 2.42.635 4.823 1.479 7.337 1.601 3.888.189 7.931-1.432 10.434-4.452 1.279-1.543 2.081-3.326 3.054-5.065 1.225-2.189 2.397-4.562 2.308-7.138s-1.197-4.82-2.103-7.176c-.582-1.511-2.018-2.555-3.69-2.095-1.447.395-2.682 2.169-2.097 3.689z" fill="#1b1464" />
  <path d="m476.062 670.057c-.879 1.625-1.75 3.255-2.586 4.903-.475.937-.942 1.879-1.373 2.838-.376.836-.816 1.706-1.022 2.608-.348 1.527.467 3.32 2.095 3.69 1.526.348 3.318-.459 3.69-2.095.101-.444.281-.87.456-1.289-.101.239-.202.478-.302.717 1.215-2.866 2.743-5.608 4.222-8.343.746-1.38.388-3.331-1.076-4.105-1.398-.739-3.307-.398-4.104 1.076z" fill="#1b1464" />
  <path d="m465.215 694.872c-.64 2.118-1.415 4.197-2.214 6.26-.207.536-.418 1.07-.633 1.603-.107.266-.215.531-.324.796-.097.236-.501 1.159-.067.167-.337.771-.664 1.547-1.05 2.296-.718 1.394-.408 3.32 1.076 4.105 1.374.726 3.337.413 4.105-1.076 1.017-1.973 1.815-4.073 2.618-6.14.821-2.113 1.619-4.244 2.274-6.415.454-1.502-.542-3.337-2.095-3.69-1.618-.37-3.204.485-3.69 2.094z" fill="#1b1464" />
  <path d="m453.262 719.586c-.936 1.784-1.797 3.607-2.681 5.417-.768 1.572-1.496 3.194-2.41 4.689-.819 1.341-.337 3.358 1.076 4.105 1.462.772 3.23.355 4.105-1.076.914-1.495 1.642-3.117 2.41-4.689.884-1.81 1.745-3.633 2.681-5.417.728-1.389.401-3.324-1.076-4.105-1.384-.731-3.327-.408-4.105 1.076z" fill="#1b1464" />
  <path d="m502.47 646.952c-2.028.62-4.055 1.201-5.989 2.084-1.929.881-3.488 2.25-4.756 3.932-1.101 1.461-1.86 3.216-2.453 4.937-.647 1.877-.96 3.872-.646 5.843.413 2.589 2.342 4.476 4.825 5.17 1.51.422 3.332-.52 3.69-2.095.362-1.591-.478-3.238-2.095-3.69-.129-.033-.257-.072-.383-.115-.307-.116-.239-.086.205.088-.103-.052-.204-.108-.302-.169-.26-.177-.19-.117.211.179-.08-.068-.156-.14-.228-.216-.204-.231-.144-.147.179.252.001-.069-.179-.314-.232-.388-.132-.28-.09-.18.124.299-.034-.096-.064-.194-.09-.293-.027-.1-.05-.201-.069-.303-.053-.315-.04-.206.041.327.045-.37-.031-.775-.001-1.154.067-.838-.109.482.003-.052.048-.227.088-.455.141-.681.093-.392.205-.78.331-1.163.038-.116.372-1.234.455-1.229-.205.48-.246.579-.125.298.038-.088.078-.176.117-.263.065-.142.131-.284.199-.425.241-.497.506-.983.807-1.447.076-.118.155-.234.235-.349.193-.264.158-.224-.105.121.019-.143.343-.407.443-.514.149-.16.303-.315.463-.464.09-.083.181-.164.274-.244.245-.201.184-.158-.183.13.377-.13.775-.53 1.134-.728.186-.103.375-.2.567-.292.111-.053.223-.105.335-.156.293-.128.227-.101-.198.081.249.071 1.117-.417 1.384-.506 1.087-.365 2.189-.681 3.285-1.016 1.499-.458 2.604-2.118 2.095-3.69-.487-1.515-2.081-2.591-3.688-2.099z" fill="#1b1464" />
  <path d="m336.849 692.465c1.046-3.152 15.563-45.458 26.563-51.41-73.413-36.029-68.286-45.702-98.167-62.611-32.943-18.641-61.783-44.14-96.309-59.934-36.054-16.493-82.227-36.645-122.129-23.124-26.685 9.042-56.262 22.734-38.347 67.256 3.683 9.154 18.127 27.432 20.873 31.074 5.854 7.766 27.032 27.732 34.941 33.45 15.602 11.279 29.486 23.879 45.071 35.181l9.294 7.174c9.745 5.494 76.89 39.176 84.493 45.725 8.012 6.901 39.624 34.563 47.986 41.258 8.455 6.77 45.44 31.65 45.44 31.65s14.557-31.412 16.831-37.88z" fill="#b464a0" />
  <path d="m339.742 693.263c1.873-5.629 3.994-11.187 6.208-16.69 3.48-8.647 7.247-17.355 12.241-25.252 1.149-1.817 2.255-3.406 3.407-4.732.569-.655 1.168-1.289 1.814-1.869.147-.132.298-.258.448-.387.5-.43-.062.031.103-.081.316-.214.63-.421.964-.607 1.873-1.044 2.035-4.181 0-5.181-15.793-7.758-31.471-15.881-46.386-25.241-8.375-5.255-16.155-10.836-23.338-16.692-5.711-4.657-11.3-9.465-17.34-13.7-3.583-2.512-7.302-4.814-11.104-6.978-8.861-5.044-17.446-10.538-25.907-16.224-17.082-11.481-33.725-23.674-51.584-33.95-8.611-4.955-17.526-9.213-26.58-13.286-8.96-4.03-17.99-7.923-27.178-11.406-18.707-7.091-38.46-12.695-58.596-13.027-9.648-.159-19.407.98-28.65 3.806-6.414 1.961-12.769 4.378-18.858 7.19-10.806 4.991-21.412 12.349-26.277 23.627-2.763 6.406-3.593 13.402-2.894 20.324.837 8.286 3.189 16.882 7.056 24.278 3.328 6.365 7.626 12.259 11.875 18.03 3.044 4.135 6.081 8.342 9.374 12.286 4.355 5.216 9.281 9.988 14.176 14.689 5.094 4.891 10.29 9.707 15.739 14.202 2.802 2.312 5.764 4.402 8.667 6.583 4.275 3.212 8.461 6.54 12.625 9.894 8.743 7.043 17.395 14.209 26.439 20.868 3.633 2.675 7.056 5.688 10.769 8.245 2.281 1.571 4.972 2.718 7.423 3.999 21.183 11.075 42.577 21.778 63.458 33.42 3.637 2.027 7.281 4.066 10.786 6.315.558.358 1.112.721 1.655 1.102.22.155.434.321.655.473.423.29-.602-.508-.237-.184.102.09.212.17.315.26 1.466 1.28 2.944 2.546 4.413 3.821 10.172 8.83 20.323 17.684 30.544 26.456 7.494 6.432 15.004 12.665 23.065 18.376 9.883 7.003 19.899 13.82 29.927 20.613 2.026 1.373 4.053 2.744 6.083 4.11 1.255.844 3.453.33 4.105-1.076 5.975-12.895 12.069-25.786 17.298-39.004 5.515-13.94 11.278-27.788 16.915-41.679 2.128-5.239 4.255-10.48 6.382-15.721.61-1.502-.663-3.297-2.095-3.69-1.716-.471-3.079.588-3.69 2.095-5.136 12.654-10.271 25.309-15.407 37.963-2.503 6.166-5.005 12.333-7.508 18.499-.576 1.42-1.107 2.856-1.691 4.272-.597 1.45-1.337 3.163-2.177 5.084-.988 2.259-1.989 4.513-2.997 6.764-3.352 7.486-6.762 14.948-10.21 22.39 1.368-.359 2.736-.718 4.105-1.076-6.922-4.657-13.82-9.352-20.698-14.075-5.221-3.585-10.432-7.187-15.598-10.851-2.014-1.429-4.023-2.866-6.009-4.335-.4-.296-.799-.593-1.197-.892-.178-.134-1.293-.993-.602-.454-.613-.479-1.219-.967-1.821-1.459-9.631-7.877-18.964-16.132-28.36-24.286-4.709-4.086-9.412-8.179-14.121-12.266-2.452-2.129-4.835-4.335-7.56-6.116-8.166-5.337-16.961-9.802-25.559-14.387-11.223-5.984-22.515-11.838-33.809-17.687-4.652-2.409-9.305-4.813-13.95-7.235-2.804-1.462-5.76-2.807-8.445-4.483-3.284-2.051-6.224-4.814-9.315-7.15-8.087-6.111-16.033-12.357-23.912-18.736-4.371-3.539-8.757-7.059-13.21-10.495-1.961-1.513-3.934-3.009-5.927-4.479-1.417-1.045-2.837-2.06-3.761-2.795-5.299-4.213-10.293-8.831-15.208-13.481-5.007-4.737-9.968-9.566-14.557-14.714-2.958-3.319-5.573-6.914-8.589-10.954-4.345-5.821-8.668-11.74-12.28-18.052-1.907-3.332-2.929-5.894-4.149-9.51-1.379-4.086-2.513-8.309-3.069-12.593-.822-6.334-.426-12.926 2.106-18.85 2.14-5.007 5.759-9.278 10.104-12.828 4.419-3.611 9.899-6.515 15.237-8.888 5.84-2.596 12.094-4.915 18.313-6.617 18.791-5.144 38.68-2.957 57.279 1.92 18.816 4.935 36.763 12.613 54.429 20.648 18.506 8.417 35.571 19.093 52.335 30.536 16.149 11.024 32.165 22.082 49.084 31.908 3.611 2.097 7.131 4.348 10.529 6.777.737.527 1.468 1.061 2.193 1.603.354.265.708.531 1.06.799.174.133.348.266.522.399.491.375-.446-.349.082.063 1.41 1.1 2.805 2.218 4.19 3.35 6.189 5.06 12.306 10.186 18.796 14.864 10.621 7.655 21.93 14.321 33.419 20.575 8.514 4.635 17.154 9.034 25.854 13.308 0-1.727 0-3.454 0-5.181-3.196 1.782-5.556 4.908-7.592 7.862-2.589 3.754-4.746 7.807-6.757 11.893-4.2 8.531-7.773 17.383-11.058 26.302-.874 2.371-1.736 4.749-2.534 7.148-1.223 3.67 4.57 5.245 5.785 1.593z" fill="#1b1464" />
  <path d="m240.242 614.073c-2.156 3.896-3.13 8.386-3.752 12.755-.837 5.881-1.107 11.814-1.05 17.751.121 12.51 1.431 25.142 4.038 37.382.993 4.664 2.177 9.343 4.001 13.76 1.24 3.003 2.866 6.782 5.952 8.328 3.601 1.803 6.824-.472 8.714-3.538 1.21-1.962 1.586-4.223 1.845-6.475.321-2.793.286-5.628.183-8.433-.25-6.812-1.028-13.598-1.742-20.373-.542-5.138-1.434-10.499-1.096-15.68.011-.165.031-.33.04-.495.038-.694-.2.759-.019.151.102-.343.422-1.256-.074-.091.634-1.489.445-3.215-1.076-4.105-1.261-.737-3.466-.423-4.105 1.076-.745 1.748-.831 3.6-.8 5.483.042 2.479.265 4.956.497 7.423.611 6.517 1.41 13.016 1.939 19.541.252 3.107.454 6.222.494 9.339.018 1.381.004 2.763-.073 4.142-.031.545-.071 1.091-.126 1.634-.015.147-.136 1.086-.059.547.073-.513-.074.433-.1.572-.083.451-.181.899-.306 1.34-.053.188-.117.373-.174.56-.027.086-.073.174-.095.262-.124.494.37-.605.098-.23-.207.285-.344.647-.536.946-.1.156-.213.305-.31.463-.351.566.498-.535.055-.065-.185.196-.367.397-.553.593-.598.63.579-.443-.118.091-.649.497.573-.238.061-.002-.082.038-.2.025-.275.069-.155.092.964-.1.385-.066-.753.045.837.1.148.024-.023-.003-.296-.112-.306-.101.197-.205.779.554.31.108-.065-.062-.188-.131-.27-.167-.48-.212.511.492.271.219-.188-.214-.437-.388-.634-.599-.103-.11-.196-.228-.298-.338-.465-.501.206.166.14.191-.055.021-.536-.773-.586-.852-.425-.669-.8-1.37-1.146-2.082-.184-.379-.352-.765-.527-1.148-.286-.627.256.649-.003-.005-.1-.252-.204-.503-.302-.755-.371-.954-.711-1.92-1.028-2.892-.742-2.275-1.366-4.587-1.922-6.914-.635-2.657-1.179-5.336-1.658-8.025-.26-1.458-.5-2.919-.723-4.382-.101-.666-.199-1.332-.293-1.999-.027-.19-.162-1.173-.121-.864.054.4-.019-.141-.031-.236-.028-.212-.055-.424-.083-.637-.785-6.128-1.298-12.293-1.51-18.468-.197-5.767-.147-11.561.396-17.31.055-.585.116-1.17.183-1.755.037-.321.077-.642.116-.963.023-.194.099-.719-.01.06.024-.173.048-.346.073-.52.167-1.161.362-2.319.595-3.469.412-2.033.936-4.056 1.689-5.991.098-.252.475-.93.02-.069.092-.175.161-.366.245-.545.181-.388.376-.769.583-1.143 1.871-3.38-3.309-6.411-5.181-3.028z" fill="#1b1464" />
  <path d="m212.539 516.046c4.576-.602 9.049-1.78 13.615-2.453.354-.052-.059.007-.109.013.138-.018.275-.036.413-.052.321-.038.642-.076.963-.108.592-.06 1.186-.109 1.78-.143 1.201-.069 2.407-.08 3.608.004.259.018.517.047.776.068.598.046-.367-.079.218.026.576.104 1.149.21 1.714.363.474.128.933.29 1.395.456-.638-.229.121.058.278.136.251.125.499.258.74.401.277.164.54.346.806.527-.477-.324.078.067.245.216.215.192.422.393.621.603.126.133.701.839.348.367.376.504.707 1.043.997 1.6.07.134.469 1.037.296.605.153.384.282.776.406 1.17 1.156 3.67 6.951 2.103 5.786-1.595-1.744-5.534-5.887-9.525-11.663-10.571-5.403-.978-10.903-.05-16.223 1.008-1.309.26-2.615.536-3.924.796-.62.123-1.24.243-1.862.354-.292.052-.585.102-.878.149-.236.038-1.233.176-.346.06-1.606.211-3 1.228-3 3-0 1.457 1.383 3.213 3 3z" fill="#1b1464" />
  <path d="m322.194 418.534c-2.039-8.703.729-17.911-3.065-26.269-2.86-6.302-8.138-12.814-14.945-14.963-6.512-2.056-16.396 2.054-15.938 9.921.189 3.249 1.835 6.215 3.66 8.829 1.974 2.829 3.803 5.02 5.63 7.448 2.999 3.985 6.203 7.817 9.463 11.59 3.261 3.774 7.829 5.727 11.43 9.069 2.828 2.624 7.08-1.609 4.243-4.243-2.856-2.65-6.404-4.329-9.308-6.886-2.943-2.592-5.381-5.967-7.847-9.004-2.11-2.598-4.076-5.304-6.137-7.94-.801-1.024-1.469-1.873-2.38-3.189-.789-1.139-1.515-2.316-2.117-3.565-.061-.126-.12-.253-.174-.382.021.05.156.404.043.083-.103-.293-.211-.582-.296-.881-.083-.288-.138-.579-.206-.87-.08-.344.015.145.018.184-.015-.202-.031-.403-.033-.606-.002-.216.128-.974-.023-.271.05-.232.125-.462.17-.693.086-.438-.216.238.14-.289.07-.104.131-.219.198-.326.417-.662-.214.207.106-.132.234-.247.469-.49.732-.708-.263.218.347-.238.44-.297.678-.435 1.386-.816 2.081-1.052.358-.121.721-.215 1.089-.3.517-.119-.081-.033.44-.068.36-.024.714-.016 1.074-.016.152 0 .306.017.457.029-.485-.038.161.024.26.045 2.727.584 4.864 2.098 6.933 4.206 2.113 2.152 3.757 4.538 5.159 7.344.181.362.352.727.519 1.096.145.32.01.009-.014-.048.097.231.188.465.275.7.354.961.602 1.955.775 2.964.334 1.943.312 4.023.308 6.017-.009 5.064-.108 10.101 1.055 15.069.37 1.578 2.172 2.513 3.69 2.095 1.615-.445 2.466-2.108 2.095-3.691z" fill="#1b1464" />
</svg>