<svg height="424" viewBox="0 0 330 424" width="330" xmlns="http://www.w3.org/2000/svg"><rect fill="#fff" height="409" rx="50" width="315" x="7.5" y="7.5"/><g fill="#dea2ff"><path d="m272.5 424h-215c-31.705 0-57.5-25.794-57.5-57.5v-309c0-31.706 25.795-57.5 57.5-57.5h215c31.706 0 57.5 25.794 57.5 57.5v309c0 31.706-25.794 57.5-57.5 57.5zm-215-409c-23.435 0-42.5 19.065-42.5 42.5v309c0 23.435 19.065 42.5 42.5 42.5h215c23.435 0 42.5-19.065 42.5-42.5v-309c0-23.435-19.065-42.5-42.5-42.5z"/><ellipse cx="68.416" cy="99.116" rx="14.167" ry="14.355"/><ellipse cx="68.416" cy="155.558" rx="14.167" ry="14.355"/><ellipse cx="68.416" cy="212" rx="14.167" ry="14.355"/><ellipse cx="68.416" cy="268.442" rx="14.167" ry="14.355"/><ellipse cx="68.416" cy="324.884" rx="14.167" ry="14.355"/><path d="m275.752 106.616h-167.072c-4.142 0-7.5-3.357-7.5-7.5s3.358-7.5 7.5-7.5h167.072c4.142 0 7.5 3.357 7.5 7.5s-3.358 7.5-7.5 7.5z"/><path d="m275.752 163.058h-167.072c-4.142 0-7.5-3.357-7.5-7.5s3.358-7.5 7.5-7.5h167.072c4.142 0 7.5 3.357 7.5 7.5s-3.358 7.5-7.5 7.5z"/><path d="m275.752 219.5h-167.072c-4.142 0-7.5-3.357-7.5-7.5s3.358-7.5 7.5-7.5h167.072c4.142 0 7.5 3.357 7.5 7.5s-3.358 7.5-7.5 7.5z"/><path d="m275.752 275.942h-167.072c-4.142 0-7.5-3.357-7.5-7.5s3.358-7.5 7.5-7.5h167.072c4.142 0 7.5 3.357 7.5 7.5s-3.358 7.5-7.5 7.5z"/><path d="m275.752 332.384h-167.072c-4.142 0-7.5-3.357-7.5-7.5s3.358-7.5 7.5-7.5h167.072c4.142 0 7.5 3.357 7.5 7.5s-3.358 7.5-7.5 7.5z"/></g></svg>