<svg xmlns="http://www.w3.org/2000/svg" viewBox="0 0 3000 2086" width="3000" height="2086">
  <g transform="translate(1129.5652173913043 412.17391304347825) rotate(0.0 570.6521739130436 476.0869565217391) scale(1.303696722695165 1.304135234178919)">
    <svg width="875.437" height="730.119" viewBox="0 0 875.437 730.119">
      <rect fill="#fff" height="715.119" rx="45.923" width="860.437" x="7.5" y="7.5" />
      <g fill="#95FF80">
        <path d="M822.014 730.119H53.423C23.965 730.119 0 706.153 0 676.696V53.423C0 23.966 23.965 0 53.423 0h768.592c29.458 0 53.423 23.966 53.423 53.423v623.273c0 29.457-23.965 53.423-53.423 53.423zM53.423 15C32.236 15 15 32.236 15 53.423v623.273c0 21.187 17.236 38.423 38.423 38.423h768.592c21.187 0 38.423-17.236 38.423-38.423V53.423c0-21.187-17.236-38.423-38.423-38.423z" />
        <circle cx="707.084" cy="53.053" r="19.362" />
        <circle cx="763.138" cy="53.053" r="19.362" />
        <circle cx="819.193" cy="53.053" r="19.362" />
        <path d="M396.482 136.008H91.001c-3.804 0-6.888-3.084-6.888-6.889s3.084-6.889 6.888-6.889h305.48c3.804 0 6.888 3.084 6.888 6.889s-3.084 6.889-6.888 6.889zm-59.381 74.571h-246.1c-3.804 0-6.888-3.084-6.888-6.889s3.084-6.889 6.888-6.889h246.1c3.804 0 6.888 3.084 6.888 6.889s-3.084 6.889-6.888 6.889zm59.381 74.571H91.451c-3.804 0-6.888-3.084-6.888-6.889s3.084-6.889 6.888-6.889h305.031c3.804 0 6.888 3.084 6.888 6.889s-3.084 6.889-6.888 6.889zM784.442 658a6.887 6.887 0 0 1-5.952-3.41L473.011 132.598a6.89 6.89 0 0 1 2.466-9.425 6.893 6.893 0 0 1 9.425 2.466L790.381 647.63a6.89 6.89 0 0 1-5.939 10.369z" />
        <path d="M478.95 658a6.89 6.89 0 0 1-5.939-10.369l305.48-521.991a6.89 6.89 0 0 1 9.425-2.466 6.89 6.89 0 0 1 2.466 9.425L484.903 654.59a6.887 6.887 0 0 1-5.952 3.41z" />
        <path d="M784.436 657.999H478.957a6.888 6.888 0 0 1-6.888-6.889V129.119a6.888 6.888 0 0 1 6.888-6.889h305.479a6.888 6.888 0 0 1 6.888 6.889V651.11a6.888 6.888 0 0 1-6.888 6.889zm-298.591-13.777h291.703V136.008H485.845zm-89.364 13.786a6.862 6.862 0 0 1-4.812-1.96L86.189 357.762a6.888 6.888 0 1 1 9.625-9.857l305.48 298.286a6.888 6.888 0 0 1-4.813 11.817z" />
        <path d="M91.002 658.008a6.89 6.89 0 0 1-4.813-11.817l305.48-298.286a6.89 6.89 0 0 1 9.625 9.857L95.814 656.048a6.868 6.868 0 0 1-4.812 1.96z" />
        <path d="M396.482 658.008H91.001a6.888 6.888 0 0 1-6.888-6.889V352.833a6.888 6.888 0 0 1 6.888-6.889h305.48a6.888 6.888 0 0 1 6.888 6.889v298.286a6.888 6.888 0 0 1-6.888 6.889zM97.89 644.231h291.704V359.722H97.889v284.509z" />
      </g>
    </svg>
  </g>
  <g transform="translate(786.5217391304348 706.9565217391305) rotate(0.0 613.6956521739131 515.8695652173913) scale(1.303299369527199 1.3040593173884192)">
    <svg width="941.757" height="791.175" viewBox="0 0 941.757 791.175">
      <rect fill="#dea2ff" height="623.398" rx="50" width="926.757" x="7.5" y="7.5" />
      <path d="M884.257 638.398H57.5c-31.706 0-57.5-25.795-57.5-57.5V57.5C0 25.795 25.794 0 57.5 0h826.757c31.706 0 57.5 25.794 57.5 57.5v523.397c0 31.706-25.794 57.5-57.5 57.5zM57.5 15C34.065 15 15 34.065 15 57.5v523.397c0 23.435 19.065 42.5 42.5 42.5h826.757c23.435 0 42.5-19.065 42.5-42.5V57.5c0-23.435-19.065-42.5-42.5-42.5z" fill="#1e284c" />
      <path d="M383.774 630.898h174.208v101.931H383.774z" fill="#fff" />
      <path d="M557.982 740.328H383.774a7.5 7.5 0 0 1-7.5-7.5V630.897a7.5 7.5 0 0 1 7.5-7.5h174.208a7.5 7.5 0 0 1 7.5 7.5v101.931a7.5 7.5 0 0 1-7.5 7.5zm-166.708-15h159.208v-86.931H391.274z" fill="#1e284c" />
      <rect fill="#fff" height="50.847" rx="25.423" width="278.224" x="331.766" y="732.828" />
      <path d="M584.566 791.175H357.189c-18.153 0-32.923-14.77-32.923-32.923s14.77-32.923 32.923-32.923h227.377c18.154 0 32.924 14.77 32.924 32.923s-14.77 32.923-32.924 32.923zm-227.377-50.847c-9.883 0-17.923 8.041-17.923 17.923s8.04 17.923 17.923 17.923h227.377c9.883 0 17.924-8.041 17.924-17.923s-8.041-17.923-17.924-17.923z" fill="#1e284c" />
      <g fill="#fff">
        <circle cx="77.981" cy="77.981" r="21.535" />
        <circle cx="143.641" cy="77.981" r="21.535" />
        <circle cx="209.301" cy="77.981" r="21.535" />
      </g>
    </svg>
  </g>
  <g transform="translate(410.8695652173913 1721.7391304347827) rotate(0.0 909.7826086956521 61.95652173913038) scale(1.304549820897934 1.3150342093460623)">
    <svg width="1394.784" height="94.228" viewBox="0 0 1394.784 94.228">
      <rect x="7.5" y="7.5" width="1379.784" height="79.228" rx="39.614" ry="39.614" style="fill:#fff" />
      <path d="M1347.671 94.228H47.114C21.136 94.228 0 73.092 0 47.114S21.136 0 47.114 0h1300.557c25.979 0 47.113 21.135 47.113 47.113s-21.135 47.114-47.113 47.114ZM47.114 15C29.406 15 15 29.406 15 47.113s14.406 32.114 32.114 32.114h1300.557c17.707 0 32.113-14.406 32.113-32.114S1365.378 15 1347.671 15H47.114Z" style="fill:#1e284c" />
    </svg>
  </g>
  <g transform="translate(382.17391304347825 923.4782608695652) rotate(0.0 159.7826086956522 75.0) scale(1.3024287372129408 1.2992299896927755)">
    <svg width="245.361" height="115.453" viewBox="0 0 245.361 115.453">
      <path d="M7.5 15.3a7.5 7.5 0 0 1-.01-15L237.851 0h.01a7.5 7.5 0 0 1 .01 15L7.51 15.3H7.5Z" style="fill:#1e284c" />
      <g>
        <path d="M7.5 48.685a7.5 7.5 0 0 1-.01-15l86.998-.113h.01a7.5 7.5 0 0 1 .01 15l-86.998.113H7.5Zm117.363-.153a7.5 7.5 0 0 1-.01-15l112.998-.147h.01a7.5 7.5 0 0 1 .01 15l-112.998.147h-.01Z" style="fill:#1e284c" />
      </g>
      <g>
        <path d="M150.863 81.882a7.5 7.5 0 0 1-.01-15l86.998-.113h.01a7.5 7.5 0 0 1 .01 15l-86.998.113h-.01ZM7.5 82.069a7.5 7.5 0 0 1-.01-15.001l112.999-.146h.01a7.5 7.5 0 0 1 .01 15L7.51 82.068H7.5Z" style="fill:#1e284c" />
      </g>
      <path d="M7.5 115.453a7.5 7.5 0 0 1-.01-15l230.361-.301h.01a7.5 7.5 0 0 1 .01 15l-230.361.301H7.5Z" style="fill:#1e284c" />
    </svg>
  </g>
  <g transform="translate(867.3913043478261 905.2173913043479) rotate(0.0 530.8695652173913 279.7826086956522) scale(1.3036271476883572 1.3022987546198972)">
    <svg width="814.45" height="429.675" viewBox="0 0 814.45 429.675">
      <path d="M431.949 244.065H6.888A6.888 6.888 0 0 1 0 237.176V11.209A6.888 6.888 0 0 1 6.888 4.32h425.061a6.888 6.888 0 0 1 6.888 6.889v225.968a6.888 6.888 0 0 1-6.888 6.889zM13.776 230.288H425.06V18.097H13.776v212.19z" fill="#fff" />
      <path d="M6.894 244.066a6.887 6.887 0 0 1-3.239-12.971L428.715 5.127a6.888 6.888 0 0 1 6.467 12.164L10.122 243.258a6.856 6.856 0 0 1-3.228.808z" fill="#fff" />
      <path d="M431.943 244.066a6.858 6.858 0 0 1-3.228-.808L3.655 17.291A6.888 6.888 0 0 1 .806 7.975a6.888 6.888 0 0 1 9.316-2.849l425.061 225.968a6.887 6.887 0 0 1-3.239 12.971zm1.005 184.999H7.888A6.888 6.888 0 0 1 1 422.176V290.177a6.888 6.888 0 0 1 6.888-6.889h425.06a6.888 6.888 0 0 1 6.888 6.889v131.999a6.888 6.888 0 0 1-6.888 6.889zM14.776 415.288H426.06V297.066H14.776v118.222z" fill="#fff" />
      <path d="M7.886 429.067a6.893 6.893 0 0 1-6.577-4.848 6.888 6.888 0 0 1 4.536-8.621l425.06-131.999c3.635-1.132 7.494.902 8.622 4.535s-.902 7.493-4.536 8.621l-425.06 132a6.866 6.866 0 0 1-2.045.313z" fill="#fff" />
      <path d="M432.95 429.067a6.86 6.86 0 0 1-2.045-.313L5.845 296.756A6.889 6.889 0 1 1 9.931 283.6l425.06 131.999a6.889 6.889 0 0 1-2.041 13.469z" fill="#fff" />
      <g fill="#1e284c">
        <path d="M738.95 180.545h-205c-4.142 0-7.5-3.357-7.5-7.5s3.358-7.5 7.5-7.5h205c4.142 0 7.5 3.357 7.5 7.5s-3.358 7.5-7.5 7.5zM533.949 56.429a7.5 7.5 0 0 1-.009-15l103.101-.122h.009a7.5 7.5 0 0 1 .009 15l-103.101.122zm139.087-.165a7.5 7.5 0 0 1-7.5-7.494 7.5 7.5 0 0 1 7.494-7.506l107.401-.081h.006a7.5 7.5 0 0 1 7.5 7.494 7.5 7.5 0 0 1-7.494 7.506l-107.401.081zm28.914 331.617h-168c-4.142 0-7.5-3.357-7.5-7.5s3.358-7.5 7.5-7.5h168c4.142 0 7.5 3.357 7.5 7.5s-3.358 7.5-7.5 7.5zm1.899-290.147a7.5 7.5 0 0 1-.009-15l103.101-.123h.009a7.5 7.5 0 0 1 .009 15l-103.101.123zm-169.9.202a7.5 7.5 0 0 1-.009-15l133.914-.159h.009a7.5 7.5 0 0 1 .009 15l-133.914.159zm224.5 207.337h-.016l-55.591-.115a7.5 7.5 0 0 1 .016-15h.016l55.591.115a7.5 7.5 0 0 1-.016 15zm-91.367-.153h-.008l-133.133-.141a7.5 7.5 0 0 1-7.492-7.508 7.5 7.5 0 0 1 7.5-7.492h.008l133.133.141a7.5 7.5 0 0 1 7.492 7.508 7.5 7.5 0 0 1-7.5 7.492zm-29.941 41.437h-.008l-103.191-.11a7.5 7.5 0 0 1 .008-15h.008l103.191.11a7.5 7.5 0 0 1-.008 15zm145.311.184h-.01l-109.294-.146a7.5 7.5 0 0 1-7.49-7.51 7.5 7.5 0 0 1 7.5-7.49h.01l109.294.146a7.5 7.5 0 0 1 7.49 7.51 7.5 7.5 0 0 1-7.5 7.49z" />
      </g>
      <path d="M592.449 139.401h-90.263c-4.142 0-7.5-3.357-7.5-7.5s3.358-7.5 7.5-7.5h90.263c4.142 0 7.5 3.357 7.5 7.5s-3.358 7.5-7.5 7.5zm77 290.273H502.186c-4.142 0-7.5-3.357-7.5-7.5s3.358-7.5 7.5-7.5h167.263c4.142 0 7.5 3.357 7.5 7.5s-3.358 7.5-7.5 7.5zm38-414.674H502.186c-4.142 0-7.5-3.357-7.5-7.5s3.358-7.5 7.5-7.5h205.263c4.142 0 7.5 3.357 7.5 7.5s-3.358 7.5-7.5 7.5zm-89 248.803H502.186c-4.142 0-7.5-3.357-7.5-7.5s3.358-7.5 7.5-7.5h116.263c4.142 0 7.5 3.357 7.5 7.5s-3.358 7.5-7.5 7.5z" fill="#95ff80" />
    </svg>
  </g>
  <g transform="translate(860.8695652173914 246.52173913043478) rotate(0.0 -318.26086956521743 190.43478260869568) scale(-1.182268874106939 1.179527919533575)">
    <svg width="538.39" height="322.9" viewBox="0 0 538.39 322.9">
      <path d="M463.163 116.211C455.466 48.959 394.409.189 326.682 8.403c-36.942 4.107-69.78 24.642-89.79 55.958-47.717-24.642-106.209-6.16-131.35 41.583-4.105 7.701-7.183 15.915-8.722 24.642-50.795 1.54-90.816 44.15-89.277 95.487C9.082 275.87 50.129 315.4 99.898 315.4h328.375c56.439 0 102.617-45.69 102.617-102.675 0-43.123-27.194-81.626-67.727-96.514z" fill="#95FF80" />
      <path d="M428.273 322.9H99.898c-26.045 0-50.718-9.978-69.475-28.096C11.639 276.66.851 252.333.046 226.305c-1.596-53.256 38.582-98.193 90.642-102.861 1.784-7.051 4.543-14.101 8.235-21.027 13.065-24.811 34.936-43.134 61.565-51.559 24.498-7.752 50.452-6.318 73.802 3.953C255.812 24.572 288.828 5.064 325.854.949c34.516-4.188 68.641 5.402 96.017 27.005 26.264 20.727 43.244 50.024 48.148 82.887 41.08 17.052 68.371 57.429 68.371 101.885 0 60.751-49.398 110.175-110.117 110.175zM192.483 61.067c-32.539 0-64.128 17.65-80.305 48.371-3.986 7.478-6.662 15.02-7.972 22.45a7.499 7.499 0 0 1-7.159 6.193c-46.627 1.414-83.416 40.786-82.007 87.767 1.422 46.007 38.697 82.052 84.859 82.052h328.375c52.447 0 95.117-42.695 95.117-95.175 0-39.717-25.243-75.675-62.813-89.475a7.5 7.5 0 0 1-4.865-6.188c-3.513-30.691-18.831-58.156-43.133-77.334-24.216-19.11-54.401-27.594-84.993-23.881-34.776 3.866-65.501 23.017-84.373 52.55a7.5 7.5 0 0 1-9.761 2.626 89.054 89.054 0 0 0-40.967-9.957z" fill="#1E284C" />
    </svg>
  </g>
  <g transform="translate(412.17391304347825 507.3913043478261) rotate(0.0 130.43478260869568 193.69565217391306) scale(1.3002131482754409 1.3038122533768153)">
    <svg width="200.636" height="297.122" viewBox="0 0 200.636 297.122">
      <path d="m190.082 162.67-34.457.559 12.577-152.482a3 3 0 0 0-2.99-3.247H35.316a3 3 0 0 0-2.99 3.247l12.725 154.275-34.595.561c-2.474.04-3.839 2.89-2.319 4.842l91.875 118.039a3 3 0 0 0 4.796-.081l87.749-120.952c1.452-2.001-.004-4.801-2.477-4.761z" fill="#dea2ff" />
      <path d="M102.384 297.122c-3.22 0-6.307-1.506-8.288-4.05L2.219 175.031a10.438 10.438 0 0 1-1.185-10.982 10.442 10.442 0 0 1 9.301-5.965l26.583-.432L24.852 11.363a10.534 10.534 0 0 1 2.741-7.977A10.527 10.527 0 0 1 35.316 0h129.896c2.927 0 5.742 1.235 7.724 3.388s2.981 5.061 2.74 7.978l-11.896 144.23 26.18-.425c4.024-.026 7.637 2.102 9.485 5.652a10.442 10.442 0 0 1-.816 11.012l-87.75 120.953a10.555 10.555 0 0 1-8.323 4.332l-.173.002zM19.596 172.935l82.658 106.198L181.2 170.314l-25.454.413a7.499 7.499 0 0 1-7.596-8.115L160.325 15H40.203l12.323 149.405a7.497 7.497 0 0 1-7.354 8.115l-25.577.415z" fill="#1e284c" />
    </svg>
  </g>
  <g transform="translate(1750.4347826086957 1633.0434782608695) rotate(0.0 106.30434782608688 52.82608695652175) scale(1.3141840502668671 1.3275721437121433)">
    <svg width="161.78" height="79.583" viewBox="0 0 161.78 79.583">
      <path d="M89.697 7.5H72.083C36.415 7.5 7.5 36.415 7.5 72.083h146.78c0-35.668-28.915-64.583-64.583-64.583z" fill="#DEA2FF" />
      <path d="M154.28 79.583H7.5a7.5 7.5 0 0 1-7.5-7.5C0 32.336 32.336 0 72.083 0h17.614c39.747 0 72.083 32.336 72.083 72.083a7.5 7.5 0 0 1-7.5 7.5zm-138.79-15h130.799C142.606 36.639 118.631 15 89.697 15H72.083C43.149 15 19.174 36.639 15.49 64.583z" fill="#1E284C" />
    </svg>
  </g>
  <g transform="translate(453.9130434782609 1339.5652173913043) rotate(0.0 237.39130434782606 118.04347826086962) scale(1.3039573553404398 1.297394936097924)">
    <svg width="364.109" height="181.97" viewBox="0 0 364.109 181.97">
      <rect fill="#1e284c" height="166.97" rx="50" width="349.109" x="7.5" y="7.5" />
      <path d="M306.609 181.969H57.5c-31.706 0-57.5-25.794-57.5-57.5V57.5C0 25.794 25.794 0 57.5 0h249.109c31.706 0 57.5 25.794 57.5 57.5v66.97c0 31.706-25.794 57.5-57.5 57.5zM57.5 15C34.065 15 15 34.065 15 57.5v66.97c0 23.435 19.065 42.5 42.5 42.5h249.109c23.435 0 42.5-19.065 42.5-42.5V57.5c0-23.435-19.065-42.5-42.5-42.5z" fill="#1e284c" />
      <g fill="#fff">
        <path d="M133.479 131.52c-2.999.151-5.304-.618-6.915-2.304s-2.418-3.84-2.418-6.466c0-2.024.562-3.784 1.687-5.285 1.124-1.498 2.811-2.322 5.06-2.474l3.149-.224c2.699-.149 4.684-.805 5.959-1.967 1.274-1.162 1.911-3.092 1.911-5.792V60.795c0-3.448.9-6.054 2.699-7.815 1.799-1.76 4.347-2.643 7.646-2.643s5.847.883 7.646 2.643c1.799 1.762 2.699 4.367 2.699 7.815v45.876c0 5.172-.938 9.541-2.811 13.1-1.875 3.561-4.666 6.297-8.377 8.209-3.711 1.911-8.34 3.017-13.887 3.316zm72.863.338c-2.999 0-6.128-.207-9.389-.618-3.261-.413-6.353-1.029-9.277-1.854s-5.548-1.799-7.871-2.924c-2.024-.974-3.449-2.267-4.273-3.879a8.627 8.627 0 0 1-.899-5.117c.225-1.798.861-3.39 1.911-4.778 1.049-1.387 2.435-2.323 4.161-2.811 1.723-.486 3.672-.243 5.847.731 2.848 1.349 6.072 2.4 9.67 3.148 3.598.75 6.972 1.125 10.12 1.125 4.947 0 8.414-.656 10.401-1.969 1.986-1.31 2.98-2.94 2.98-4.891 0-1.722-.694-3.109-2.08-4.16-1.388-1.048-3.842-1.948-7.365-2.698l-13.156-2.811c-7.196-1.5-12.557-4.123-16.079-7.872-3.524-3.748-5.285-8.582-5.285-14.504 0-3.898.805-7.44 2.417-10.626 1.611-3.186 3.897-5.903 6.859-8.152 2.96-2.249 6.483-3.992 10.57-5.228 4.085-1.238 8.639-1.856 13.662-1.856 3.897 0 7.852.433 11.863 1.293 4.01.863 7.478 2.157 10.401 3.879 1.724.9 2.96 2.137 3.711 3.712.748 1.573 1.049 3.205.9 4.891-.151 1.686-.731 3.167-1.743 4.441-1.012 1.275-2.361 2.119-4.048 2.53-1.686.413-3.693.132-6.016-.844-2.175-.973-4.63-1.704-7.365-2.191-2.737-.488-5.38-.731-7.927-.731-2.774 0-5.135.32-7.084.955-1.95.638-3.43 1.556-4.442 2.755-1.012 1.2-1.518 2.587-1.518 4.16s.656 2.907 1.968 3.992c1.311 1.087 3.728 2.006 7.253 2.755l13.043 2.811c7.27 1.575 12.706 4.16 16.304 7.759s5.397 8.284 5.397 14.055c0 3.898-.787 7.421-2.361 10.57-1.574 3.148-3.823 5.829-6.747 8.04-2.924 2.212-6.448 3.919-10.57 5.117-4.124 1.197-8.771 1.798-13.943 1.798z" />
      </g>
    </svg>
  </g>
  <g transform="translate(1374.7826086956522 558.2608695652174) rotate(0.0 237.39130434782612 118.04347826086956) scale(1.30395735534044 1.2973949360979233)">
    <svg width="364.109" height="181.97" viewBox="0 0 364.109 181.97">
      <rect fill="#1e284c" height="166.97" rx="50" width="349.109" x="7.5" y="7.5" />
      <path d="M306.609 181.969H57.5c-31.706 0-57.5-25.794-57.5-57.5V57.5C0 25.794 25.794 0 57.5 0h249.109c31.706 0 57.5 25.794 57.5 57.5v66.97c0 31.706-25.794 57.5-57.5 57.5zM57.5 15C34.065 15 15 34.065 15 57.5v66.97c0 23.435 19.065 42.5 42.5 42.5h249.109c23.435 0 42.5-19.065 42.5-42.5V57.5c0-23.435-19.065-42.5-42.5-42.5z" fill="#1e284c" />
      <g fill="#fff">
        <path d="m148.828 123.482-41.492-16.305c-4.649-1.799-6.971-5.097-6.971-9.895 0-2.399.58-4.384 1.743-5.959 1.161-1.573 2.904-2.811 5.228-3.71l41.492-16.305c1.799-.675 3.373-.787 4.723-.337s2.418 1.257 3.205 2.417a7.92 7.92 0 0 1 1.349 3.879 6.764 6.764 0 0 1-.899 3.992c-.713 1.236-1.931 2.193-3.655 2.868l-47.339 18.216v-9.782l47.339 18.216c1.724.675 2.941 1.63 3.655 2.868.711 1.236 1.012 2.549.899 3.934-.112 1.388-.562 2.662-1.349 3.824s-1.855 1.967-3.205 2.417c-1.349.449-2.924.337-4.723-.337zm28.11 8.657c-.675 1.948-1.687 3.373-3.036 4.273-1.349.899-2.811 1.33-4.385 1.293-1.574-.039-3.018-.45-4.329-1.236-1.313-.787-2.268-1.951-2.868-3.486-.599-1.537-.599-3.318 0-5.341l24.962-77.811c.599-1.948 1.592-3.373 2.98-4.273 1.386-.899 2.848-1.329 4.385-1.293 1.536.039 2.98.45 4.329 1.238 1.349.786 2.323 1.929 2.924 3.429.599 1.5.562 3.299-.113 5.396l-24.85 77.811zm38.343-8.657c-1.799.675-3.356.786-4.666.337-1.312-.45-2.38-1.255-3.204-2.417-.826-1.162-1.276-2.436-1.349-3.824-.076-1.385.242-2.698.956-3.934.712-1.238 1.892-2.193 3.542-2.868l47.451-18.216v9.782L210.56 84.126c-1.65-.675-2.83-1.631-3.542-2.868a7.089 7.089 0 0 1-.956-3.992 7.226 7.226 0 0 1 1.349-3.879c.824-1.161 1.892-1.967 3.204-2.417 1.311-.45 2.868-.337 4.666.337l41.492 16.305c4.647 1.799 6.971 5.023 6.971 9.669 0 2.4-.562 4.405-1.686 6.016-1.125 1.613-2.887 2.907-5.285 3.879l-41.492 16.305z" />
      </g>
    </svg>
  </g>
  <g transform="translate(2100.0 884.3478260869565) rotate(0.0 215.21739130434776 276.52173913043475) scale(1.304347826086956 1.3043478260869563)">
    <svg width="330" height="424" viewBox="0 0 330 424">
      <rect fill="#fff" height="409" rx="50" width="315" x="7.5" y="7.5" />
      <g fill="#dea2ff">
        <path d="M272.5 424h-215C25.795 424 0 398.206 0 366.5v-309C0 25.794 25.795 0 57.5 0h215C304.206 0 330 25.794 330 57.5v309c0 31.706-25.794 57.5-57.5 57.5zM57.5 15C34.065 15 15 34.065 15 57.5v309c0 23.435 19.065 42.5 42.5 42.5h215c23.435 0 42.5-19.065 42.5-42.5v-309c0-23.435-19.065-42.5-42.5-42.5z" />
        <ellipse cx="68.416" cy="99.116" rx="14.167" ry="14.355" />
        <ellipse cx="68.416" cy="155.558" rx="14.167" ry="14.355" />
        <ellipse cx="68.416" cy="212" rx="14.167" ry="14.355" />
        <ellipse cx="68.416" cy="268.442" rx="14.167" ry="14.355" />
        <ellipse cx="68.416" cy="324.884" rx="14.167" ry="14.355" />
        <path d="M275.752 106.616H108.68c-4.142 0-7.5-3.357-7.5-7.5s3.358-7.5 7.5-7.5h167.072c4.142 0 7.5 3.357 7.5 7.5s-3.358 7.5-7.5 7.5zm0 56.442H108.68c-4.142 0-7.5-3.357-7.5-7.5s3.358-7.5 7.5-7.5h167.072c4.142 0 7.5 3.357 7.5 7.5s-3.358 7.5-7.5 7.5zm0 56.442H108.68c-4.142 0-7.5-3.357-7.5-7.5s3.358-7.5 7.5-7.5h167.072c4.142 0 7.5 3.357 7.5 7.5s-3.358 7.5-7.5 7.5zm0 56.442H108.68c-4.142 0-7.5-3.357-7.5-7.5s3.358-7.5 7.5-7.5h167.072c4.142 0 7.5 3.357 7.5 7.5s-3.358 7.5-7.5 7.5zm0 56.442H108.68c-4.142 0-7.5-3.357-7.5-7.5s3.358-7.5 7.5-7.5h167.072c4.142 0 7.5 3.357 7.5 7.5s-3.358 7.5-7.5 7.5z" />
      </g>
    </svg>
  </g>
  <g transform="translate(601.304347826087 1657.8260869565217) rotate(0.0 278.47826086956525 39.78260869565213) scale(1.2993209450536345 1.3172613057730582)">
    <svg width="428.652" height="60.402" viewBox="0 0 428.652 60.402">
      <path d="M406.152 20.302H22.5c-8.284 0-15 6.716-15 15v17.6h413.652v-17.6c0-8.285-6.715-15-15-15z" fill="#DEA2FF" />
      <path d="M421.153 60.402H7.5a7.5 7.5 0 0 1-7.5-7.5v-17.6c0-12.407 10.094-22.5 22.5-22.5h383.653c12.406 0 22.5 10.093 22.5 22.5v17.6a7.5 7.5 0 0 1-7.5 7.5zM15 45.402h398.653v-10.1c0-4.135-3.365-7.5-7.5-7.5H22.5c-4.135 0-7.5 3.365-7.5 7.5z" fill="#1E284C" />
      <path d="M50.324 7.5H32.37l-4.896 12.802H55.22z" fill="#fff4e2" />
      <path d="M55.22 27.802H27.474a7.5 7.5 0 0 1-7.005-10.179l4.896-12.802A7.5 7.5 0 0 1 32.37 0h17.953a7.5 7.5 0 0 1 7.005 4.821l4.896 12.802a7.497 7.497 0 0 1-7.004 10.179z" fill="#1E284C" />
      <path d="M100.648 7.5H82.694l-4.896 12.802h27.746z" fill="#fff4e2" />
      <path d="M105.544 27.802H77.798a7.5 7.5 0 0 1-7.005-10.179l4.896-12.802A7.5 7.5 0 0 1 82.695 0h17.953a7.5 7.5 0 0 1 7.005 4.821l4.896 12.802a7.497 7.497 0 0 1-7.005 10.179z" fill="#1E284C" />
      <path d="M150.972 7.5h-17.953l-4.897 12.802h27.747z" fill="#fff4e2" />
      <path d="M155.869 27.802h-27.746a7.5 7.5 0 0 1-7.005-10.179l4.896-12.802A7.498 7.498 0 0 1 133.019 0h17.953a7.5 7.5 0 0 1 7.005 4.821l4.896 12.802a7.497 7.497 0 0 1-7.004 10.179z" fill="#1E284C" />
      <path d="M201.296 7.5h-17.953l-4.897 12.802h27.747z" fill="#fff4e2" />
      <path d="M206.193 27.802h-27.746a7.5 7.5 0 0 1-7.005-10.179l4.896-12.802A7.498 7.498 0 0 1 183.343 0h17.954a7.5 7.5 0 0 1 7.005 4.821l4.896 12.802a7.497 7.497 0 0 1-7.005 10.179z" fill="#1E284C" />
      <path d="M301.945 7.5h-17.954l-4.896 12.802h27.746z" fill="#fff4e2" />
      <path d="M306.841 27.802h-27.746a7.5 7.5 0 0 1-7.005-10.179l4.896-12.802A7.5 7.5 0 0 1 283.991 0h17.953a7.5 7.5 0 0 1 7.005 4.821l4.896 12.802a7.497 7.497 0 0 1-7.004 10.179z" fill="#1E284C" />
      <path d="M352.269 7.5h-17.954l-4.896 12.802h27.746z" fill="#fff4e2" />
      <path d="M357.165 27.802h-27.746a7.5 7.5 0 0 1-7.005-10.179l4.896-12.802A7.5 7.5 0 0 1 334.315 0h17.953a7.5 7.5 0 0 1 7.005 4.821l4.896 12.802a7.497 7.497 0 0 1-7.004 10.179z" fill="#1E284C" />
      <path d="M402.593 7.5h-17.954l-4.896 12.802h27.746z" fill="#fff4e2" />
      <path d="M407.489 27.802h-27.746a7.5 7.5 0 0 1-7.005-10.179l4.896-12.802A7.5 7.5 0 0 1 384.639 0h17.954a7.5 7.5 0 0 1 7.005 4.821l4.896 12.802a7.497 7.497 0 0 1-7.005 10.179z" fill="#1E284C" />
    </svg>
  </g>
  <g transform="translate(2299.5652173913045 1351.304347826087) rotate(0.0 237.391304347826 118.0434782608695) scale(1.3039573553404393 1.297394936097923)">
    <svg width="364.109" height="181.97" viewBox="0 0 364.109 181.97">
      <rect fill="#1e284c" height="166.97" rx="50" width="349.109" x="7.5" y="7.5" />
      <path d="M306.609 181.969H57.5c-31.706 0-57.5-25.794-57.5-57.5V57.5C0 25.794 25.794 0 57.5 0h249.109c31.706 0 57.5 25.794 57.5 57.5v66.97c0 31.706-25.794 57.5-57.5 57.5zM57.5 15C34.065 15 15 34.065 15 57.5v66.97c0 23.435 19.065 42.5 42.5 42.5h249.109c23.435 0 42.5-19.065 42.5-42.5V57.5c0-23.435-19.065-42.5-42.5-42.5z" fill="#1e284c" />
      <g fill="#fff">
        <path d="M123.192 131.858c-8.771 0-16.304-1.686-22.601-5.059-6.297-3.374-11.115-8.134-14.449-14.28-3.336-6.146-5.004-13.343-5.004-21.59 0-6.146.956-11.731 2.867-16.754 1.912-5.021 4.684-9.334 8.321-12.932 3.635-3.597 8.057-6.352 13.268-8.264 5.209-1.912 11.076-2.868 17.597-2.868 3.447 0 7.028.394 10.738 1.181 3.711.787 6.989 1.967 9.839 3.542 2.098 1.123 3.56 2.549 4.385 4.273.824 1.724 1.105 3.486.844 5.283-.264 1.799-.919 3.413-1.968 4.836-1.051 1.424-2.4 2.38-4.048 2.868-1.65.488-3.449.243-5.397-.731-2.249-1.049-4.48-1.856-6.69-2.417a27.93 27.93 0 0 0-6.916-.844c-4.649 0-8.528.882-11.638 2.642-3.111 1.763-5.454 4.33-7.028 7.702-1.574 3.374-2.361 7.534-2.361 12.482s.787 9.127 2.361 12.537c1.574 3.412 3.916 5.999 7.028 7.759 3.11 1.763 6.989 2.643 11.638 2.643 1.949 0 4.048-.243 6.297-.731a29.568 29.568 0 0 0 6.634-2.306c2.249-.973 4.253-1.236 6.016-.786 1.76.449 3.185 1.349 4.273 2.698 1.086 1.349 1.78 2.905 2.08 4.667.299 1.762.056 3.504-.731 5.228-.787 1.726-2.156 3.111-4.104 4.16-2.625 1.573-5.866 2.811-9.726 3.71a50.63 50.63 0 0 1-11.526 1.349zm63.866-4.722c-2.249 0-3.974-.618-5.172-1.856-1.2-1.236-1.799-2.979-1.799-5.228v-15.067h-14.73c-2.175 0-3.842-.562-5.004-1.686-1.163-1.125-1.743-2.773-1.743-4.948s.58-3.823 1.743-4.948c1.161-1.125 2.829-1.686 5.004-1.686h14.73V77.211c0-2.249.599-3.972 1.799-5.172 1.198-1.198 2.96-1.799 5.285-1.799 2.249 0 3.953.601 5.116 1.799 1.162 1.2 1.743 2.922 1.743 5.172v14.506h14.73c2.173 0 3.841.562 5.004 1.686 1.161 1.125 1.743 2.773 1.743 4.948s-.582 3.823-1.743 4.948c-1.163 1.125-2.83 1.686-5.004 1.686h-14.73v15.067c0 2.249-.582 3.992-1.743 5.228-1.163 1.238-2.906 1.856-5.228 1.856zm67.465 0c-2.249 0-3.974-.618-5.172-1.856-1.2-1.236-1.799-2.979-1.799-5.228v-15.067h-14.73c-2.175 0-3.842-.562-5.004-1.686-1.163-1.125-1.743-2.773-1.743-4.948s.58-3.823 1.743-4.948c1.161-1.125 2.829-1.686 5.004-1.686h14.73V77.211c0-2.249.599-3.972 1.799-5.172 1.198-1.198 2.96-1.799 5.285-1.799 2.249 0 3.953.601 5.116 1.799 1.162 1.2 1.743 2.922 1.743 5.172v14.506h14.73c2.173 0 3.841.562 5.004 1.686 1.161 1.125 1.743 2.773 1.743 4.948s-.582 3.823-1.743 4.948c-1.163 1.125-2.83 1.686-5.004 1.686h-14.73v15.067c0 2.249-.582 3.992-1.743 5.228-1.163 1.238-2.906 1.856-5.228 1.856z" />
      </g>
    </svg>
  </g>
</svg>